<svg width="133" height="19" viewBox="0 0 133 19" fill="none" xmlns="http://www.w3.org/2000/svg">
<path d="M4.43888 15.7368H0L2.24331 3.61472H6.72992C9.68918 3.61472 10.9779 4.74973 10.5483 6.97438L9.54599 12.3317C9.11642 14.6018 7.39813 15.7368 4.43888 15.7368ZM4.34343 5.33996L2.76833 14.0115H4.72526C5.44121 14.0115 5.96625 13.8753 6.30036 13.6483C6.6822 13.3759 6.92085 12.9673 7.01631 12.4225L8.01862 6.97438C8.11408 6.42957 8.01862 6.02095 7.77997 5.74855C7.54132 5.47614 7.01629 5.38535 6.34808 5.38535H4.34343V5.33996ZM13.6985 15.7368H11.2165L13.4598 3.61472H15.9418L13.6985 15.7368ZM20.142 15.873C18.7579 15.873 17.7555 15.6006 17.0873 15.0104C16.4191 14.4202 16.2282 13.6483 16.3714 12.6495L16.4668 12.1501H18.8056L18.7101 12.6495C18.6147 13.1035 18.7101 13.5121 19.0442 13.7845C19.3784 14.0569 19.8079 14.1932 20.4284 14.1932C21.0489 14.1932 21.5739 14.0569 21.9558 13.7845C22.3853 13.5121 22.624 13.1035 22.7195 12.6495C22.8149 12.1047 22.7194 11.6961 22.3853 11.3783C22.099 11.1059 21.4307 10.7427 20.333 10.2887C19.1397 9.78924 18.3283 9.28985 17.8987 8.74503C17.5169 8.20022 17.3737 7.51919 17.5646 6.65657C17.7555 5.65775 18.2806 4.88594 19.1397 4.34113C19.9988 3.75091 21.1444 3.4785 22.5285 3.4785C23.9127 3.4785 24.8673 3.75091 25.5355 4.34113C26.2037 4.93134 26.3947 5.70315 26.2037 6.74738L26.156 7.06519H23.8172L23.865 6.74738C23.9604 6.24797 23.865 5.88477 23.5786 5.56696C23.2922 5.29455 22.8626 5.11295 22.2422 5.11295C21.6694 5.11295 21.1921 5.24914 20.7625 5.52154C20.3807 5.79395 20.142 6.15717 20.0466 6.61118C19.9511 7.11059 20.0466 7.51919 20.3807 7.7916C20.7148 8.064 21.4307 8.42722 22.4808 8.88123C23.7218 9.38064 24.5332 9.88005 24.8673 10.4703C25.2491 11.0151 25.3446 11.7415 25.2014 12.6495C25.0105 13.6483 24.4855 14.4656 23.5786 15.0558C22.6717 15.6006 21.5262 15.873 20.142 15.873ZM29.163 15.7368H26.681L28.9243 3.61472H33.22C34.7474 3.61472 35.7974 3.88712 36.4179 4.43193C37.0384 4.97675 37.2771 5.79395 37.0384 6.88357L36.943 7.5192C36.752 8.65423 36.227 9.47145 35.4156 10.0163C34.6042 10.5611 33.411 10.8335 31.9313 10.8335H30.0699L29.163 15.7368ZM31.0722 5.33996L30.404 9.10824H32.2177C32.9337 9.10824 33.4587 8.97204 33.7928 8.74503C34.1269 8.51803 34.3656 8.10941 34.461 7.5192L34.5565 6.88357C34.6519 6.33876 34.5565 5.93016 34.3178 5.70316C34.0792 5.47615 33.6019 5.33996 32.8859 5.33996H31.0722ZM45.773 15.7368H43.2433L43.0524 13.3759H39.0431L37.993 15.7368H35.6543L41.2387 3.61472H44.5798L45.773 15.7368ZM42.4796 5.65777L39.8545 11.6507H42.9569L42.4796 5.65777ZM51.2142 15.7368H48.7323L50.6415 5.33996H47.3004L47.6345 3.61472H56.7986L56.4645 5.33996H53.1234L51.2142 15.7368ZM60.3784 15.873C58.9942 15.873 57.9441 15.6006 57.3237 15.0104C56.7032 14.4202 56.4645 13.5576 56.6554 12.4679L57.7055 6.88357C57.8964 5.79395 58.4214 4.93134 59.2806 4.34113C60.1397 3.75091 61.2852 3.43311 62.6694 3.43311C64.0536 3.43311 65.1036 3.75091 65.7241 4.34113C66.3923 4.93134 66.5833 5.74855 66.3923 6.88357L66.2491 7.74621H63.9104L64.1013 6.79279C64.1968 6.24798 64.1013 5.83937 63.8149 5.56696C63.5285 5.29455 63.0512 5.11295 62.4308 5.11295C61.8103 5.11295 61.333 5.24915 60.9034 5.56696C60.5216 5.83937 60.2829 6.24798 60.1875 6.79279L59.1374 12.5133C59.0419 13.0581 59.1374 13.4667 59.4238 13.7392C59.7102 14.0116 60.1874 14.1932 60.7602 14.1932C61.3807 14.1932 61.9057 14.057 62.2876 13.7392C62.6694 13.4213 62.9558 13.0581 63.0513 12.5133L63.2899 11.2421H65.6287L65.39 12.4679C65.1991 13.5576 64.6741 14.4202 63.8149 15.0104C62.9081 15.6006 61.8103 15.873 60.3784 15.873ZM69.3993 15.7368H66.9174L69.1607 3.61472H71.6426L70.688 8.69962H74.7928L75.7474 3.61472H78.2294L75.9861 15.7368H73.5041L74.4587 10.4703H70.3539L69.3993 15.7368ZM86.6298 15.7368H78.5635L80.8068 3.61472H88.8731L88.539 5.33996H82.9546L82.3341 8.69962H86.8207L86.4866 10.4249H82L81.3318 13.9662H86.9162L86.6298 15.7368ZM91.1164 15.7368H88.6345L90.8778 3.61472H95.2212C96.7009 3.61472 97.7986 3.84171 98.4191 4.34113C99.0396 4.84054 99.2783 5.61234 99.0873 6.65657L98.9919 7.06519C98.7532 8.42722 97.8464 9.28985 96.3667 9.65306V9.69844C97.0827 9.83465 97.6077 10.1525 97.8464 10.6065C98.1328 11.0605 98.1805 11.7415 97.9896 12.6041L97.7032 14.057C97.56 14.738 97.56 15.3282 97.7032 15.7368H95.1735C95.078 15.3736 95.078 14.8288 95.2212 14.057L95.5076 12.4679C95.6508 11.8323 95.5553 11.3329 95.2212 11.1059C94.9348 10.8335 94.3621 10.6973 93.5029 10.6973H92.0233L91.1164 15.7368ZM93.0256 5.33996L92.3574 8.92662H93.8371C94.6485 8.92662 95.2212 8.79044 95.6508 8.51803C96.0804 8.24562 96.319 7.83701 96.4145 7.29219L96.5099 6.88357C96.6054 6.33876 96.5099 5.93016 96.2713 5.70316C96.0326 5.43075 95.5553 5.33996 94.8394 5.33996H93.0256Z" fill="white"/>
<path d="M105.77 0.0279541H132.021L128.203 18.6424H101.951L105.77 0.0279541Z" fill="#DA3537"/>
<path d="M114.695 15.7367H107.154L107.392 14.4201C107.536 13.5574 107.917 12.831 108.443 12.15C109.015 11.469 109.874 10.788 111.02 10.0162C112.118 9.28974 112.881 8.74493 113.311 8.29092C113.741 7.83691 114.027 7.29209 114.122 6.74728C114.313 5.79386 113.884 5.33986 112.881 5.33986C111.831 5.33986 111.211 5.79386 111.068 6.74728L110.877 7.7915H108.633L108.824 6.7927C109.015 5.79387 109.493 5.02204 110.256 4.47723C111.02 3.88701 112.022 3.61462 113.311 3.61462C114.552 3.61462 115.459 3.88702 116.032 4.43184C116.604 4.97665 116.795 5.74847 116.604 6.70189C116.461 7.47371 116.079 8.20013 115.459 8.83574C114.838 9.51676 113.788 10.2886 112.404 11.1966C111.545 11.7868 110.924 12.2408 110.543 12.604C110.209 12.9672 109.97 13.3758 109.922 13.8299L109.874 14.0114H115.029L114.695 15.7367ZM123.43 15.7367H121.043L121.425 13.5574H116.318L116.652 11.8322L123.048 3.75082H125.673L124.193 11.7868H125.434L125.1 13.512H123.859L123.43 15.7367ZM122.666 6.88348L118.8 11.8322H121.759L122.666 6.88348Z" fill="white"/>
</svg>
