<svg width="123" height="136" viewBox="0 0 123 136" fill="none" xmlns="http://www.w3.org/2000/svg">
<g filter="url(#filter0_f)">
<ellipse cx="85.3271" cy="98.2201" rx="27.7629" ry="6.23248" transform="rotate(9.69705 85.3271 98.2201)" fill="url(#paint0_radial)" fill-opacity="0.25"/>
</g>
<g filter="url(#filter1_f)">
<ellipse cx="37.7124" cy="117.78" rx="27.7629" ry="6.23248" transform="rotate(9.69705 37.7124 117.78)" fill="url(#paint1_radial)" fill-opacity="0.25"/>
</g>
<path d="M71.3786 92.2509C72.754 90.8402 73.7849 89.665 73.7849 89.665L80.0482 89.3861V91.561C80.0482 91.561 79.8584 92.4592 78.8836 93.1075C77.9092 93.7557 76.0019 94.8622 74.9617 95.2552C73.4967 95.8093 70.8783 96.3996 69.7223 96.4467C68.4074 96.4992 67.8386 95.8491 68.5287 95.1411C69.7102 93.9296 70.1054 93.5547 71.3786 92.2509Z" fill="#464648"/>
<path d="M90.3494 92.055L96.5309 91.4043C96.5309 91.4043 97.3927 95.0773 95.9482 98.8667C94.5036 102.654 91.9635 102.691 91.0713 102.392C90.18 102.092 89.7674 99.6831 89.9281 96.9552C90.088 94.2256 90.3494 92.055 90.3494 92.055Z" fill="#464648"/>
<path d="M77.6989 42.5044C77.6989 42.5044 91.7418 38.1233 91.3986 40.8146C91.3986 40.8146 94.5197 44.819 94.0188 52.8025C93.7891 56.47 94.0983 65.6036 94.3987 71.8973C98.0027 80.1886 98.7112 89.7659 98.7112 89.7659C98.7112 89.7659 99.2614 91.3687 96.4578 92.8014C93.6548 94.234 89.5616 92.7398 89.5616 92.7398C89.5616 92.7398 89.5616 80.3879 86.3124 73.3806C84.5349 69.5482 84.0554 56.2726 84.0554 56.2726L81.2526 70.5009L81.0029 88.5416C81.0029 88.5416 79.0074 90.5537 76.5878 90.5628C73.4341 90.5755 73.2757 88.6937 73.2757 88.6937C73.2757 88.6937 72.727 73.2411 73.9814 64.5857C75.0851 56.9699 77.6989 42.5044 77.6989 42.5044Z" fill="#0040E5"/>
<path d="M78.788 16.2915C77.9197 17.0182 75.9399 19.0316 74.8879 20.8837C74.4589 21.6394 72.6445 25.3002 71.4575 27.8101C69.8819 27.7956 64.4809 27.2211 63.0816 27.2211C61.4586 27.2211 61.1116 27.2211 61.1116 27.2211C61.1116 27.2211 61.5165 29.1277 61.1116 29.7837C60.7054 30.4379 60.3569 31.6304 60.3569 31.6304C60.3569 31.6304 61.8643 33.0602 64.8202 33.7145C67.7756 34.3705 72.2789 35.5032 74.4982 34.4919C76.5955 33.5369 77.1954 28.0657 77.4074 27.2592C77.782 23.912 79.7424 18.3357 82.0173 16.1737C82.0173 16.1737 80.2354 15.0827 78.788 16.2915Z" fill="#C1BFBD"/>
<path d="M81.2657 16.1927C81.2657 16.1927 77.0169 19.7436 76.5116 24.7622C76.3887 25.9768 76.6133 30.601 76.3558 34.3621C76.0827 38.3259 75.9045 40.9021 76.5663 42.2098C77.356 43.7704 80.1777 45.3049 82.9467 45.8165C86.0843 46.3949 89.6486 45.4128 92.0126 45.0501C94.6034 43.3481 93.0115 40.638 93.2361 38.8542C93.936 33.2776 94.9845 24.2618 94.7944 22.7868C94.4763 20.3203 89.0716 17.6473 89.0716 17.6473C89.0716 17.6473 85.2378 14.5744 81.2657 16.1927Z" fill="#DFDFDD"/>
<path d="M81.6426 21.1943L81.3688 23.6126C81.3688 23.6126 80.1536 27.391 79.8816 29.0786C79.6083 30.7663 79.0635 38.0709 79.0635 38.0709L79.988 40.9493L81.8017 39.3629L82.639 24.2531L83.9863 22.4477L82.7013 20.7673L81.6426 21.1943Z" fill="#574F91"/>
<path d="M82.3001 16.2626L82.0171 19.9809C82.0171 19.9809 82.5608 20.7141 83.9556 21.7765C85.4459 21.358 88.909 18.466 88.909 18.466L87.7546 12.6946L82.3001 16.2626Z" fill="#F89D8E"/>
<path d="M88.0025 6.51178C86.6462 4.68116 82.7469 3.13727 80.2072 7.11832C77.5436 11.2942 80.0601 18.1222 82.3938 17.7234C83.6999 17.501 86.6429 16.2402 87.9321 14.0107C89.3832 11.5 89.0565 7.93436 88.0025 6.51178Z" fill="#FABAAC"/>
<path d="M82.6366 17.7401L83.002 20.867L80.0574 21.7765C80.0574 21.7765 79.7551 18.4625 82.6366 17.7401Z" fill="white"/>
<path d="M88.1452 16.731C88.1452 16.731 87.3476 17.9768 85.9559 19.3817C84.8766 20.4702 83.0024 21.0314 83.0024 21.0314L83.8887 23.7947C83.8887 23.7947 87.1412 22.2468 88.3354 20.8956C88.3354 20.8956 89.7466 18.3628 88.1452 16.731Z" fill="white"/>
<path d="M82.281 6.56372C86.031 7.94535 86.9749 11.007 87.4442 11.4232C87.975 11.8945 87.8984 13.7037 87.8984 13.7037C87.8984 13.7037 89.9016 11.923 89.8937 8.9469C89.8878 7.09016 88.3107 3.07262 85.0048 2.65072C81.6989 2.23072 77.9317 4.69559 79.3838 7.05215C80.3732 6.4022 81.2722 6.19314 82.281 6.56372Z" fill="#464648"/>
<path d="M96.4046 34.14C97.2279 28.2557 96.8823 23.0823 93.7362 20.9758C91.45 19.4441 90.7347 26.7021 90.1133 31.3521C89.9636 32.4706 88.9267 37.6073 88.6742 38.8231C87.142 39.1959 81.9912 42.4649 81.0332 43.7193C81.2922 44.25 82.3841 44.823 82.9456 48.0131C86.3944 47.2362 90.4553 46.4373 92.6794 43.9617C94.8896 41.5007 96.0196 36.8947 96.4046 34.14Z" fill="#C1BFBD"/>
<path d="M71.0745 47.0861L79.0644 52.0494L72.2859 39.8582L64.2959 34.8948L71.0745 47.0861Z" fill="#CA8436"/>
<path d="M79.2718 52.0494L80.0484 51.5516L72.9484 38.9312L72.1719 39.429L79.2718 52.0494Z" fill="#D69442"/>
<path d="M64.2959 35.3404L65.0483 34.8948L73.157 39.4946L72.4046 39.9403L64.2959 35.3404Z" fill="#E6AD5A"/>
<path d="M83.0021 46.8571C83.0021 46.8571 81.9367 48.1432 81.2278 48.6346C78.973 50.1905 77.1805 50.1089 76.4497 49.95C74.7389 49.582 72.9414 47.9864 72.4164 47.0035C72.007 46.2381 72.1035 45.6526 72.768 45.1382C73.613 44.4816 75.3434 45.3996 76.3842 45.295C76.0347 44.7931 76.0346 44.6049 75.7958 44.1365C76.7084 43.7434 79.4845 44.1993 79.4845 44.1993C79.4845 44.1993 82.8372 42.9822 83.0021 46.8571Z" fill="#FABAAC"/>
<path d="M89.8934 29.4515L85.3031 27.8311C85.3031 27.8311 83.901 31.6824 86.8562 32.7057C89.9535 33.7783 89.8934 29.4515 89.8934 29.4515Z" fill="white"/>
<path d="M80.0484 25.2948L77.3478 23.7947C77.3478 23.7947 76.4103 28.1019 78.1442 28.7895C79.5239 29.3355 80.0484 25.2948 80.0484 25.2948Z" fill="white"/>
<path d="M81.5811 42.9675C81.5811 42.9675 82.816 43.5377 83.5518 45.397C84.2876 47.2542 83.8662 47.9414 83.8662 47.9414L81.1809 49.0221C81.1809 49.0221 80.9625 47.1777 80.4358 45.9523C79.9611 44.8503 79.0635 44.2844 79.0635 44.2844L81.5811 42.9675Z" fill="white"/>
<path d="M88.455 5.24146C91.0896 6.34544 91.6653 8.5423 89.7404 10.152C87.8155 11.7598 84.1209 12.1692 81.4861 11.0652C78.8521 9.96306 78.2766 7.76436 80.2013 6.15654C82.1248 4.54872 85.8209 4.13747 88.455 5.24146Z" fill="#66CE70"/>
<path d="M78.1714 8.36442C78.1714 8.36442 76.9671 1.57756 83.2827 0.676409C90.6425 -0.373401 90.879 8.01039 90.879 8.01039L78.0796 9.66736" fill="#66CE70"/>
<path d="M78.2382 7.64905C78.2382 7.64905 75.2878 10.3882 78.8655 11.9201C84.9318 14.5185 89.8941 9.74577 89.8941 9.74577C89.8941 9.74577 83.4506 11.2705 80.1777 9.84502C77.9625 8.87965 78.2382 7.64905 78.2382 7.64905Z" fill="#48AC51"/>
<path d="M84.2776 1.01003C83.2864 1.53169 82.838 2.15414 82.2581 3.4256C81.6782 4.69705 82.1571 5.91192 83.5621 6.65286C84.9664 7.39381 85.9332 8.6582 85.9332 8.6582C85.9332 8.6582 86.1386 7.21874 84.9242 6.3045C83.7084 5.38849 82.5746 4.91633 83.274 3.4256C84.1336 1.59534 86.9399 0.918068 86.9399 0.918068C86.9399 0.918068 85.9822 0.111697 84.2776 1.01003Z" fill="#48AC51"/>
<path d="M83.0024 0.585449C83.0024 0.585449 81.3515 1.23665 80.6918 2.29289C80.3758 2.79744 80.3946 4.53106 80.0961 4.96054C79.7989 5.39176 78.2564 6.64001 78.2564 6.64001C78.2564 6.64001 77.7914 6.2018 78.3696 5.40919C78.9484 4.61658 79.65 4.55024 79.714 3.36831C79.7571 2.5757 79.3574 0.814154 83.0024 0.585449Z" fill="#48AC51"/>
<path d="M61.1944 26.8935C61.1944 26.8935 58.3538 26.1512 56.4774 25.9446C54.6013 25.738 54.279 25.7888 53.9038 25.9971C53.5286 26.2037 54.0646 26.5136 54.6013 26.6169C55.1373 26.7219 55.0834 27.1877 54.7619 27.291C54.4398 27.3943 52.7781 27.4468 51.2771 28.275C49.7759 29.1031 50.7141 29.9628 52.1083 30.6298C53.5016 31.2986 56.8258 30.3199 58.1124 29.9837C59.3124 29.6703 60.6314 30.3462 60.6314 30.3462C60.6314 30.3462 61.7309 28.7249 61.1944 26.8935Z" fill="#FABAAC"/>
<path d="M62.2463 27.0609C62.2463 27.0609 62.4262 28.4405 62.2463 29.4605C62.0671 30.4806 61.1637 31.8674 61.1637 31.8674L59.3726 30.6612C59.3726 30.6612 59.8114 29.7306 60.0902 28.8054C60.4346 27.6649 60.1514 26.8219 60.1514 26.8219L62.2463 27.0609Z" fill="#DFDFDD"/>
<path d="M44.61 67.1859L44.6045 57.3064L58.3884 49.0221V58.8802L44.61 67.1859Z" fill="#D9A14E"/>
<path d="M44.6042 67.1859L44.5987 57.3064L30.8203 49.0221V58.8802L44.6042 67.1859Z" fill="#E6AF64"/>
<path d="M30.8203 49.0212L44.6042 57.0948L58.3881 49.0212L44.6097 40.9493L30.8203 49.0212Z" fill="#FDDDB6"/>
<path d="M53.4654 57.2656L50.5117 59.113V53.9005L53.4654 52.0494V57.2656Z" fill="#464648"/>
<path d="M53.4653 52.2124L38.9837 43.9767L35.7432 45.8195L50.2318 54.0676L53.4653 52.2124Z" fill="#656769"/>
<path d="M46.5732 65.1677V64.1669L51.4961 61.1313V62.1497L46.5732 65.1677Z" fill="#464648"/>
<path d="M46.5732 63.1495V62.1472L51.4961 59.113V60.1309L46.5732 63.1495Z" fill="#464648"/>
<path d="M55.4341 56.2648V59.113L57.4032 57.9266V55.0768L55.4341 56.2648Z" fill="#464648"/>
<path d="M32.7894 56.5139V60.1222L30.8203 58.6831V55.0768L32.7894 56.5139Z" fill="#464648"/>
<path d="M36.7271 58.532V62.1404L33.7734 60.7013V57.0948L36.7271 58.532Z" fill="#464648"/>
<path d="M43.6194 58.0122V63.1495L39.6812 60.2199V55.0768L43.6194 58.0122Z" fill="white"/>
<path d="M43.6194 59.113V58.3066L39.6812 56.0858V56.8792L43.6194 59.113Z" fill="#464648"/>
<path d="M44.6082 55.0768L44.6045 49.3143L54.4501 43.9767V49.7409L44.6082 55.0768Z" fill="#D9A14E"/>
<path d="M44.6037 55.0768L44.6001 49.2596L33.7734 42.9675V48.783L44.6037 55.0768Z" fill="#E6AF64"/>
<path d="M33.7734 42.4981L44.9112 49.0221L54.4493 43.4351L43.3186 36.913L33.7734 42.4981Z" fill="#FDDDB6"/>
<path d="M45.5884 54.0676V53.5672L48.5421 52.0494V52.5573L45.5884 54.0676Z" fill="#464648"/>
<path d="M45.5884 53.0586V52.5566L48.5421 51.0403V51.5497L45.5884 53.0586Z" fill="#464648"/>
<path d="M35.7434 45.1281V48.0131L34.7588 46.8636V43.9767L35.7434 45.1281Z" fill="#464648"/>
<path d="M43.6194 49.7938V53.0586L39.6812 50.274V47.0038L43.6194 49.7938Z" fill="white"/>
<path d="M43.6194 51.0403V50.2339L39.6812 48.0131V48.8068L43.6194 51.0403Z" fill="#464648"/>
<path d="M51.4957 48.1198L48.542 50.0311V46.8988L51.4957 44.9857V48.1198Z" fill="#464648"/>
<path d="M51.4963 45.1464L40.8691 38.9312L37.7124 40.7745L48.3491 47.0038L51.4963 45.1464Z" fill="#656769"/>
<path d="M30.7287 57.9664C31.8937 53.8526 32.4901 49.3223 30.522 45.9949L26.2399 46.0975C26.2399 46.0975 24.5136 50.0041 24.0695 52.919C23.6253 55.8339 24.2734 57.2207 25.3903 58.6016C26.5079 59.9826 30.4841 58.1406 30.6319 58.038L30.7287 57.9664Z" fill="#FABAAC"/>
<path d="M41.7677 117.687C41.7677 117.687 45.8861 115.72 47.9241 115.625C49.962 115.532 50.1589 118.097 47.9241 120.086C45.6897 122.074 43.978 122.341 42.1495 123.145C40.5009 123.872 39.9098 123.929 38.594 123.014C36.8393 121.795 38.2458 118.571 38.2458 118.571L41.7677 117.687Z" fill="#464648"/>
<path d="M29.188 110.226C29.188 110.226 32.6078 108.664 34.738 108.562C36.8682 108.463 37.6319 110.476 35.2964 112.598C32.9597 114.72 31.4982 115.19 29.5862 116.05C27.8638 116.825 27.2542 116.871 25.8699 115.91C23.9851 114.602 25.4581 111.162 25.5051 111.17L29.188 110.226Z" fill="#464648"/>
<path d="M41.8447 65.7485C41.8447 65.7485 45.5889 86.9098 45.5889 93.5554C45.5889 105.274 45.4891 117.614 45.4891 117.614C45.4891 117.614 43.6339 119.654 41.8271 119.659C37.7615 119.67 37.351 117.53 37.351 117.53C37.351 117.53 37.294 103.564 36.9401 97.2203C36.6935 92.8057 36.4469 86.5878 34.7528 81.4598C34.7039 86.7279 34.7168 88.4166 34.3038 94.1523C33.9988 98.3831 32.314 109.742 32.2223 110.482C30.9344 112.111 26.9373 113.235 24.9131 110.85C25.0713 108.981 26.1956 95.861 26.0481 89.0589C25.9144 82.8101 24.39 68.0086 27.8063 65.1244C30.7584 62.6332 41.8447 65.7485 41.8447 65.7485Z" fill="#363444"/>
<path d="M31.3256 52.0457C31.1264 48.9089 30.6259 47.0748 30.6259 47.0748L32.7893 40.4036C32.7893 40.4036 29.7574 38.9122 27.7078 41.2812C26.8553 42.267 25.2907 45.2279 23.9282 47.9891C24.977 49.7572 27.8332 52.1574 31.3256 52.0457Z" fill="#D76C1B"/>
<path d="M37.0399 27.4035C35.4535 26.3035 32.4034 26.6486 31.08 29.4375C30.3467 30.9824 31.3825 35.1371 31.5458 38.0552C31.6781 40.4067 30.8884 41.7651 30.8884 41.7651C30.8884 41.7651 30.8884 41.7651 32.9105 42.5976C34.9327 43.43 37.0399 42.5976 37.0399 42.5976L36.9743 39.0094C36.9743 39.0094 39.1516 38.6864 39.5324 38.3376C40.4499 37.4978 40.9354 35.0024 40.5106 31.7834C39.8777 26.9919 37.6243 27.8077 37.0399 27.4035Z" fill="#FABAAC"/>
<path d="M42.3368 52.8177C43.523 50.3067 40.8328 45.7531 40.0777 44.1149C39.3225 42.4786 36.9062 41.4819 36.9062 41.4819C36.9062 41.4819 33.6044 40.2956 32.4534 40.1243C31.9511 40.0496 30.2115 39.9403 30.2115 39.9403C30.2115 39.9403 26.3702 45.928 25.9434 49.2243C25.6453 51.5349 26.9163 59.0823 25.9736 66.5169C25.4757 70.451 40.4592 69.3412 41.78 67.7377C41.0111 64.0168 39.9116 57.9471 42.3368 52.8177Z" fill="#D9A14E"/>
<path d="M26.8352 54.9464C26.842 55.3355 27.0859 59.9122 26.6291 62.8847C26.173 65.8553 25.897 70.452 25.897 70.452C25.897 70.452 29.9684 73.7442 34.6724 73.1742C39.3771 72.6023 42.6346 69.7559 42.6346 69.7559C42.6346 69.7559 41.0708 61.392 41.1594 60.3652C41.2473 59.3385 41.2473 59.3385 41.2473 59.3385C41.2473 59.3385 39.4423 60.2264 38.3009 59.7276C37.1587 59.2307 35.2499 58.3209 34.6724 55.2954C34.2616 53.1432 34.5315 48.1409 34.6284 46.8054C34.3977 46.7707 28.5549 44.9857 28.5549 44.9857C28.5549 44.9857 26.7671 50.9106 26.8352 54.9464Z" fill="#363444"/>
<path d="M36.7271 31.3628C36.9487 30.5395 39.477 30.3442 39.6038 29.572C39.7519 28.6767 39.3085 28.0937 38.204 26.8219C37.0992 25.5481 33.7547 24.3897 32.3689 25.2793C30.9833 26.167 28.035 27.789 29.0644 33.081C29.896 37.3604 30.7036 37.8392 31.871 38.8443C33.2811 38.9311 33.2811 38.931 33.2811 38.931C33.2811 38.931 35.0702 39.0356 35.2503 37.4173C35.3077 36.9063 34.758 35.3991 34.758 35.3991C34.758 35.3991 34.8447 33.2229 35.6364 32.4261C36.478 31.5763 36.0378 29.3022 36.2348 29.8492C36.9255 31.7627 36.8939 34.5652 36.7271 31.3628Z" fill="#464648"/>
<path d="M58.1693 59.3261C58.1693 59.3261 53.9883 59.5971 49.7863 58.4119C47.0002 57.6268 45.5071 56.6573 44.5246 56.1523C43.9831 55.1607 42.9999 52.0494 42.9999 52.0494L37.7124 54.2981C37.7124 54.2981 39.0453 58.0194 39.8268 59.7169C40.4552 61.0808 41.241 61.3554 42.4943 61.8365C44.3257 62.5387 49.6939 62.7341 51.8304 63.0216C53.9676 63.3092 55.3257 63.064 56.5446 62.7581C59.1326 62.1074 58.2722 60.0744 58.1693 59.3261Z" fill="#FABAAC"/>
<path d="M37.9946 55.9139C40.4983 56.4691 43.2025 55.6664 44.6036 53.6931C43.5833 48.9328 41.9613 43.7556 39.738 42.9947C38.543 42.5869 36.4055 46.8611 36.7679 49.8903C36.8705 50.7458 37.3706 53.1287 37.9946 55.9139Z" fill="#D76C1B"/>
<path d="M26.0861 66.1768L25.897 68.4372C25.897 68.4372 28.6755 71.0674 34.6752 71.215C40.6764 71.3665 42.6346 69.108 42.6346 69.108L42.2797 66.7827C42.2797 66.7827 39.1898 68.931 34.5077 69.0077C29.8262 69.0864 26.0861 66.1768 26.0861 66.1768Z" fill="#776CB2"/>
<path d="M32.7896 46.8942C32.7896 46.8942 33.3791 44.4362 34.4883 43.2548C35.5248 42.1507 36.636 41.9585 36.636 41.9585C36.636 41.9585 37.7272 42.2723 37.7122 42.5927C37.117 42.9607 36.0271 43.3748 35.3834 44.5068C34.7391 45.6389 34.2598 48.0131 34.2598 48.0131L32.7896 46.8942Z" fill="#574F91"/>
<path d="M30.5213 39.9403C30.458 39.9718 29.3833 41.7677 28.596 44.6604C28.2452 45.9502 27.8667 48.8626 27.8667 48.8626L29.0104 49.0221C29.0104 49.0221 30.1084 44.2862 30.7296 42.577C31.3506 40.8658 31.805 40.023 31.805 40.023L30.5213 39.9403Z" fill="#574F91"/>
<path d="M55.4341 60.0298C55.5665 59.9798 57.0239 58.9135 57.5538 58.4151C58.0836 57.9183 58.5246 58.0425 58.3483 58.6029C58.1711 59.1619 57.2445 60.1222 57.2445 60.1222C57.2445 60.1222 55.8964 60.0298 55.6657 60.0298H55.4341Z" fill="#FABAAC"/>
<path d="M37.1808 26.861C40.3271 27.1469 41.5718 28.9443 39.9623 30.8737C38.3528 32.8032 34.4975 34.1341 31.352 33.8465C28.2057 33.559 26.961 31.7616 28.5703 29.8321C30.1798 27.9043 34.0353 26.5734 37.1808 26.861Z" fill="#D9A14E"/>
<path d="M28.1365 31.8674C28.1365 31.8674 26.4287 26.007 31.6064 24.2393C35.3264 22.9691 38.123 24.451 39.6328 28.2933C40.5522 30.6343 28.1365 31.8674 28.1365 31.8674Z" fill="#D9A14E"/>
<path d="M37.712 32.3719C38.1194 32.155 40.0135 30.4076 39.4885 28.3602C39.4137 28.0661 38.7111 26.9062 38.7111 26.9062C38.7111 26.9062 39.2709 26.6265 41.5726 27.0855C43.8725 27.5462 44.3015 29.5022 42.5162 30.872C40.2488 32.6165 37.2197 32.8766 37.2197 32.8766" fill="#F59145"/>
<defs>
<filter id="filter0_f" x="47.9404" y="80.499" width="74.7734" height="35.4423" filterUnits="userSpaceOnUse" color-interpolation-filters="sRGB">
<feFlood flood-opacity="0" result="BackgroundImageFix"/>
<feBlend mode="normal" in="SourceGraphic" in2="BackgroundImageFix" result="shape"/>
<feGaussianBlur stdDeviation="5" result="effect1_foregroundBlur"/>
</filter>
<filter id="filter1_f" x="0.325684" y="100.059" width="74.7734" height="35.4423" filterUnits="userSpaceOnUse" color-interpolation-filters="sRGB">
<feFlood flood-opacity="0" result="BackgroundImageFix"/>
<feBlend mode="normal" in="SourceGraphic" in2="BackgroundImageFix" result="shape"/>
<feGaussianBlur stdDeviation="5" result="effect1_foregroundBlur"/>
</filter>
<radialGradient id="paint0_radial" cx="0" cy="0" r="1" gradientUnits="userSpaceOnUse" gradientTransform="translate(85.3271 98.2201) rotate(90) scale(6.23248 27.7629)">
<stop stop-color="#141414"/>
<stop offset="1" stop-color="#121212" stop-opacity="0"/>
</radialGradient>
<radialGradient id="paint1_radial" cx="0" cy="0" r="1" gradientUnits="userSpaceOnUse" gradientTransform="translate(37.7124 117.78) rotate(90) scale(6.23248 27.7629)">
<stop stop-color="#141414"/>
<stop offset="1" stop-color="#121212" stop-opacity="0"/>
</radialGradient>
</defs>
</svg>
