<svg width="182" height="149" viewBox="0 0 182 149" fill="none" xmlns="http://www.w3.org/2000/svg">
<g filter="url(#filter0_f)">
<ellipse rx="56.6827" ry="5.68537" transform="matrix(0.90867 -0.417516 0.488979 0.872296 75.6706 114.376)" fill="url(#paint0_radial)" fill-opacity="0.25"/>
</g>
<g filter="url(#filter1_f)">
<ellipse rx="56.6827" ry="5.68537" transform="matrix(0.90867 -0.417516 0.488979 0.872296 120.357 42.7783)" fill="url(#paint1_radial)" fill-opacity="0.25"/>
</g>
<path d="M73.0491 72.1879C73.0491 72.3121 72.9672 72.4565 72.8663 72.5106C72.766 72.5638 72.6841 72.5075 72.6841 72.3822C72.6841 72.2581 72.766 72.1127 72.8663 72.0595C72.9672 72.0055 73.0491 72.0626 73.0491 72.1879Z" fill="#333232"/>
<path d="M70.6789 73.4551C70.6789 73.5792 70.597 73.7245 70.4963 73.7778C70.3958 73.8318 70.3135 73.7747 70.3135 73.6494C70.3135 73.5252 70.3958 73.3808 70.4963 73.3267C70.597 73.2735 70.6789 73.3298 70.6789 73.4551Z" fill="#333232"/>
<path d="M70.3132 72.5237C70.3132 72.649 70.2318 72.7942 70.1306 72.8486C70.0297 72.9015 69.9482 72.8443 69.9482 72.7203C69.9482 72.5962 70.0297 72.4498 70.1306 72.3966C70.2318 72.3425 70.3132 72.3997 70.3132 72.5237Z" fill="#333232"/>
<path d="M71.8148 73.4551C71.8148 73.5792 71.7329 73.7245 71.6321 73.7778C71.5312 73.8318 71.4497 73.7747 71.4497 73.6494C71.4497 73.5252 71.5312 73.3808 71.6321 73.3267C71.7329 73.2735 71.8148 73.3298 71.8148 73.4551Z" fill="#333232"/>
<path d="M65.5617 74.9898C65.5617 76.8661 64.3329 79.0431 62.8168 79.8564C61.3011 80.6681 60.0728 79.8063 60.0728 77.9308C60.0728 76.0552 61.3011 73.8763 62.8168 73.0653C64.3329 72.2521 65.5617 73.1144 65.5617 74.9898Z" fill="#929292"/>
<path d="M64.7873 75.4044C64.7873 76.7506 63.9058 78.3141 62.8176 78.8967C61.7302 79.479 60.8486 78.8615 60.8486 77.5153C60.8486 76.1691 61.7302 74.6064 62.8176 74.0242C63.9058 73.4407 64.7873 74.059 64.7873 75.4044Z" fill="white"/>
<path d="M63.7704 75.9497C63.7704 76.6013 63.3438 77.3574 62.8176 77.6378C62.2923 77.9197 61.8657 77.6209 61.8657 76.9701C61.8657 76.3197 62.2923 75.564 62.8176 75.2821C63.3438 75.0005 63.7704 75.2993 63.7704 75.9497Z" fill="#333232"/>
<path d="M63.0002 74.5385C63.0002 74.6638 62.9188 74.8091 62.8175 74.8623C62.717 74.9164 62.6353 74.8604 62.6353 74.7351C62.6353 74.6106 62.717 74.4653 62.8175 74.4113C62.9188 74.3569 63.0002 74.414 63.0002 74.5385Z" fill="#333232"/>
<path d="M64.2351 74.5385C64.2351 74.6638 64.1532 74.8091 64.0529 74.8623C63.952 74.9164 63.8701 74.8604 63.8701 74.7351C63.8701 74.6106 63.952 74.4653 64.0529 74.4113C64.1532 74.3569 64.2351 74.414 64.2351 74.5385Z" fill="#333232"/>
<path d="M61.866 75.8062C61.866 75.9315 61.7841 76.0759 61.6832 76.13C61.5827 76.184 61.501 76.1268 61.501 76.0015C61.501 75.8774 61.5827 75.7329 61.6832 75.6789C61.7841 75.6237 61.866 75.682 61.866 75.8062Z" fill="#333232"/>
<path d="M64.2351 76.918C64.2351 77.0425 64.1532 77.1878 64.0529 77.2418C63.952 77.2958 63.8701 77.2386 63.8701 77.1145C63.8701 76.9893 63.952 76.8441 64.0529 76.79C64.1532 76.7368 64.2351 76.7928 64.2351 76.918Z" fill="#333232"/>
<path d="M61.866 78.1862C61.866 78.3103 61.7841 78.4547 61.6832 78.5087C61.5827 78.5639 61.501 78.5056 61.501 78.3815C61.501 78.2562 61.5827 78.1118 61.6832 78.0578C61.7841 78.0037 61.866 78.0609 61.866 78.1862Z" fill="#333232"/>
<path d="M64.5286 75.6361C64.5286 75.7602 64.4467 75.9047 64.3458 75.9599C64.2453 76.014 64.1636 75.956 64.1636 75.8315C64.1636 75.7062 64.2453 75.5621 64.3458 75.5077C64.4467 75.4536 64.5286 75.512 64.5286 75.6361Z" fill="#333232"/>
<path d="M61.4998 77.2549C61.4998 77.3802 61.4179 77.5259 61.3174 77.5787C61.2166 77.6331 61.1348 77.576 61.1348 77.4507C61.1348 77.3262 61.2166 77.1821 61.3174 77.1269C61.4179 77.0737 61.4998 77.1308 61.4998 77.2549Z" fill="#333232"/>
<path d="M63.0002 78.1862C63.0002 78.3103 62.9188 78.4547 62.8175 78.5087C62.717 78.5639 62.6353 78.5056 62.6353 78.3815C62.6353 78.2562 62.717 78.1118 62.8175 78.0578C62.9188 78.0037 63.0002 78.0609 63.0002 78.1862Z" fill="#333232"/>
<path d="M56.5981 78.4799C55.3629 77.8894 53.5518 77.0163 53.5518 77.0163L57.1741 75.4876L56.5981 78.4799Z" fill="#434244"/>
<path d="M52.7725 78.002L51.7095 78.5721V81.9282L52.7725 81.3588V78.002Z" fill="#434244"/>
<path d="M50.6939 80.7673L49.25 79.9943V78.2061L50.6939 78.981V80.7673Z" fill="#F03E7E"/>
<path d="M51.082 78.7724L50.6934 78.9811V80.7673L51.082 80.5586V78.7724Z" fill="#D22869"/>
<path d="M51.0826 78.7725L49.6387 78.0019L49.25 78.2102L50.694 78.9811L51.0826 78.7725Z" fill="#F03374"/>
<path d="M135.125 13.7951L114.5 2.40204L109.3 5.29101L129.15 15.5724L135.125 13.7951Z" fill="#4C3EF0"/>
<path d="M108.263 2.12051L97.1284 8.46248V33.1274L102.029 30.5019C102.577 26.9905 104.883 23.3381 107.646 21.8584C110.41 20.3768 112.717 21.5577 113.265 24.4826L116.919 22.5248V6.75763C116.919 2.63573 112.11 0.0585103 108.263 2.12051Z" fill="#4C3EF0"/>
<path d="M134.323 36.6722L131.075 34.8491L128.017 33.4003C128.017 33.4003 130.629 32.6306 130.792 32.5347C130.955 32.4391 135.164 33.8335 134.323 36.6722Z" fill="#232221"/>
<path d="M130.385 36.8432C130.385 39.7359 128.49 43.0967 126.151 44.3488C123.813 45.6018 121.917 44.2725 121.917 41.3789C121.917 38.4858 123.813 35.1258 126.151 33.8728C128.49 32.6199 130.385 33.95 130.385 36.8432Z" fill="#2C2A2A"/>
<path d="M126.588 46.2123L123.522 44.6124L128.993 33.7077L131.927 35.2292L126.588 46.2123Z" fill="#2C2A2A"/>
<path d="M133.567 38.4868C133.567 41.381 131.672 44.7417 129.333 45.9947C126.994 47.2469 125.1 45.9175 125.1 43.0247C125.1 40.1307 126.994 36.7706 129.333 35.5176C131.672 34.2647 133.567 35.5948 133.567 38.4868Z" fill="#434244"/>
<path d="M132.078 39.3779C132.078 41.2535 130.848 43.4324 129.333 44.2445C127.817 45.0563 126.588 44.1944 126.588 42.3189C126.588 40.4433 127.817 38.2644 129.333 37.4522C130.848 36.6402 132.078 37.5024 132.078 39.3779Z" fill="#929292"/>
<path d="M131.302 39.7934C131.302 41.1394 130.42 42.7021 129.333 43.2856C128.245 43.8678 127.363 43.2491 127.363 41.9041C127.363 40.5581 128.245 38.9942 129.333 38.4119C130.42 37.8297 131.302 38.4468 131.302 39.7934Z" fill="white"/>
<path d="M130.286 40.338C130.286 40.9888 129.859 41.7445 129.333 42.0261C128.808 42.308 128.381 42.0092 128.381 41.3584C128.381 40.7081 128.808 39.9512 129.333 39.6704C129.859 39.3888 130.286 39.6876 130.286 40.338Z" fill="#333232"/>
<path d="M129.515 38.9279C129.515 39.0524 129.434 39.1966 129.332 39.2511C129.232 39.3051 129.15 39.2479 129.15 39.1225C129.15 38.9984 129.232 38.8539 129.332 38.7998C129.434 38.7454 129.515 38.8025 129.515 38.9279Z" fill="#333232"/>
<path d="M130.75 38.9279C130.75 39.0524 130.668 39.1966 130.567 39.2511C130.467 39.3051 130.385 39.2479 130.385 39.1225C130.385 38.9984 130.467 38.8539 130.567 38.7998C130.668 38.7454 130.75 38.8025 130.75 38.9279Z" fill="#333232"/>
<path d="M128.382 40.195C128.382 40.3203 128.3 40.4647 128.2 40.5187C128.098 40.572 128.017 40.5156 128.017 40.3904C128.017 40.2662 128.098 40.121 128.2 40.0677C128.3 40.0125 128.382 40.0697 128.382 40.195Z" fill="#333232"/>
<path d="M130.75 41.3063C130.75 41.4308 130.668 41.5748 130.567 41.6293C130.467 41.6841 130.385 41.6261 130.385 41.5017C130.385 41.3764 130.467 41.2323 130.567 41.1779C130.668 41.1239 130.75 41.181 130.75 41.3063Z" fill="#333232"/>
<path d="M128.382 42.5751C128.382 42.6991 128.3 42.8436 128.2 42.8976C128.098 42.9517 128.017 42.8945 128.017 42.7704C128.017 42.6451 128.098 42.4999 128.2 42.4466C128.3 42.3925 128.382 42.4498 128.382 42.5751Z" fill="#333232"/>
<path d="M131.045 40.0244C131.045 40.1497 130.963 40.2942 130.862 40.3482C130.762 40.4022 130.68 40.3443 130.68 40.2198C130.68 40.0946 130.762 39.9493 130.862 39.896C130.963 39.842 131.045 39.8999 131.045 40.0244Z" fill="#333232"/>
<path d="M128.016 41.6435C128.016 41.7688 127.934 41.9132 127.833 41.9672C127.732 42.0213 127.651 41.9633 127.651 41.8392C127.651 41.7147 127.732 41.5702 127.833 41.5154C127.934 41.4609 128.016 41.5193 128.016 41.6435Z" fill="#333232"/>
<path d="M129.515 42.5751C129.515 42.6991 129.434 42.8436 129.332 42.8976C129.232 42.9517 129.15 42.8945 129.15 42.7704C129.15 42.6451 129.232 42.4999 129.332 42.4466C129.434 42.3925 129.515 42.4498 129.515 42.5751Z" fill="#333232"/>
<path d="M100.973 45.7059L116.068 37.694L124.539 42.2329L109.375 50.2938L100.973 45.7059Z" fill="#636567"/>
<path d="M124.538 42.233L109.3 50.3201V54.155L124.538 46.0729V42.233Z" fill="#535456"/>
<path d="M123.566 45.5455L115.279 49.961V50.3961L123.566 45.9829V45.5455Z" fill="#878888"/>
<path d="M123.566 44.5963L115.279 49.0107V49.4468L123.566 45.0332V44.5963Z" fill="#878888"/>
<path d="M118.759 20.4584L129.803 14.3087L107.678 2.45355L96.7764 8.67854L118.759 20.4584Z" fill="#293DEF"/>
<path d="M100.82 9.04022C100.82 9.04022 107.374 5.32748 109.731 4.05846C111.048 3.34967 112.537 2.75536 112.537 2.75536C112.537 2.75536 112.288 0.908756 109.305 1.51841C106.031 2.1868 100.82 4.25262 100.82 4.25262V9.04022Z" fill="#EF2968"/>
<path d="M129.269 11.2133L111.795 1.73059L101.862 4.81411L118.935 15.5724L129.269 11.2133Z" fill="#293DEF"/>
<path d="M118.759 45.0351L109.3 40.3669V15.2656L118.759 20.3347V45.0351Z" fill="#3E85F0"/>
<path d="M118.934 18.7774L100.82 9.44202V4.25275L118.934 13.9899V18.7774Z" fill="#3E85F0"/>
<path d="M71.9312 64.8414L76.591 67.3384V71.768L71.9312 69.2711V64.8414Z" fill="#2C2A2A"/>
<path d="M111.505 46.9961C111.505 49.8878 109.609 53.2501 107.271 54.5019C104.933 55.7549 103.037 54.4255 103.037 51.5319C103.037 48.6391 104.933 45.2787 107.271 44.0257C109.609 42.7728 111.505 44.1033 111.505 46.9961Z" fill="#2C2A2A"/>
<path d="M107.708 56.3642L104.642 54.7655L110.113 43.8608L113.046 45.3824L107.708 56.3642Z" fill="#2C2A2A"/>
<path d="M114.686 48.6401C114.686 51.534 112.79 54.8951 110.452 56.1481C108.114 57.3999 106.218 56.0698 106.218 53.1777C106.218 50.2842 108.114 46.9231 110.452 45.6701C112.79 44.4178 114.686 45.7484 114.686 48.6401Z" fill="#434244"/>
<path d="M113.198 49.5311C113.198 51.4066 111.969 53.5855 110.453 54.3964C108.937 55.2093 107.708 54.3475 107.708 52.472C107.708 50.5957 108.937 48.4176 110.453 47.6055C111.969 46.7939 113.198 47.6556 113.198 49.5311Z" fill="#929292"/>
<path d="M112.422 49.9463C112.422 51.2924 111.541 52.855 110.453 53.4373C109.366 54.0198 108.484 53.4024 108.484 52.057C108.484 50.711 109.366 49.1475 110.453 48.565C111.541 47.9827 112.422 48.6002 112.422 49.9463Z" fill="white"/>
<path d="M111.404 50.4911C111.404 51.1419 110.978 51.8977 110.453 52.1791C109.927 52.4611 109.5 52.1623 109.5 51.5119C109.5 50.8604 109.927 50.1043 110.453 49.8235C110.978 49.5421 111.404 49.8408 111.404 50.4911Z" fill="#333232"/>
<path d="M110.635 49.0802C110.635 49.2055 110.554 49.35 110.453 49.404C110.352 49.4581 110.271 49.4008 110.271 49.2755C110.271 49.1514 110.352 49.007 110.453 48.953C110.554 48.8977 110.635 48.9561 110.635 49.0802Z" fill="#333232"/>
<path d="M111.87 49.0802C111.87 49.2055 111.788 49.35 111.688 49.404C111.586 49.4581 111.505 49.4008 111.505 49.2755C111.505 49.1514 111.586 49.007 111.688 48.953C111.788 48.8977 111.87 48.9561 111.87 49.0802Z" fill="#333232"/>
<path d="M109.501 50.3473C109.501 50.4726 109.419 50.6178 109.318 50.6719C109.217 50.7251 109.136 50.6692 109.136 50.5439C109.136 50.4194 109.217 50.274 109.318 50.22C109.419 50.1656 109.501 50.2228 109.501 50.3473Z" fill="#333232"/>
<path d="M111.87 51.4593C111.87 51.584 111.788 51.7281 111.688 51.7825C111.586 51.8378 111.505 51.7794 111.505 51.6553C111.505 51.5299 111.586 51.3853 111.688 51.3313C111.788 51.2772 111.87 51.334 111.87 51.4593Z" fill="#333232"/>
<path d="M109.501 52.7264C109.501 52.8509 109.419 52.9962 109.318 53.0504C109.217 53.1044 109.136 53.0472 109.136 52.923C109.136 52.7977 109.217 52.6524 109.318 52.5992C109.419 52.545 109.501 52.6011 109.501 52.7264Z" fill="#333232"/>
<path d="M112.165 50.1777C112.165 50.303 112.084 50.4475 111.982 50.5015C111.882 50.5547 111.8 50.4976 111.8 50.3731C111.8 50.2479 111.882 50.1026 111.982 50.0493C112.084 49.9953 112.165 50.0525 112.165 50.1777Z" fill="#333232"/>
<path d="M109.135 51.7968C109.135 51.9221 109.054 52.0661 108.952 52.1201C108.851 52.1746 108.77 52.1162 108.77 51.9921C108.77 51.8676 108.851 51.7224 108.952 51.6682C109.054 51.6142 109.135 51.6722 109.135 51.7968Z" fill="#333232"/>
<path d="M110.635 52.7264C110.635 52.8509 110.554 52.9962 110.453 53.0504C110.352 53.1044 110.271 53.0472 110.271 52.923C110.271 52.7977 110.352 52.6524 110.453 52.5992C110.554 52.545 110.635 52.6011 110.635 52.7264Z" fill="#333232"/>
<path d="M101.566 52.3958C101.566 55.289 99.6714 58.6497 97.3332 59.9027C94.9942 61.1556 93.0991 59.8255 93.0991 56.9327C93.0991 54.0388 94.9942 50.6788 97.3332 49.4258C99.6714 48.1729 101.566 49.503 101.566 52.3958Z" fill="#2C2A2A"/>
<path d="M97.77 61.7651L94.7041 60.164L100.175 49.2603L103.108 50.7819L97.77 61.7651Z" fill="#2C2A2A"/>
<path d="M104.748 54.0406C104.748 56.9339 102.853 60.2945 100.514 61.5467C98.1758 62.7997 96.2808 61.4704 96.2808 58.5764C96.2808 55.6848 98.1758 52.3237 100.514 51.0707C102.853 49.8178 104.748 51.147 104.748 54.0406Z" fill="#434244"/>
<path d="M103.26 54.931C103.26 56.8062 102.031 58.9856 100.515 59.7977C98.9988 60.6094 97.77 59.7472 97.77 57.872C97.77 55.9965 98.9988 53.8175 100.515 53.0053C102.031 52.1933 103.26 53.0555 103.26 54.931Z" fill="#929292"/>
<path d="M102.484 55.3469C102.484 56.6924 101.603 58.255 100.515 58.8385C99.4269 59.4207 98.5454 58.802 98.5454 57.4559C98.5454 56.1109 99.4269 54.5481 100.515 53.9648C101.603 53.3825 102.484 54.0007 102.484 55.3469Z" fill="white"/>
<path d="M101.467 55.8912C101.467 56.5421 101.041 57.2977 100.515 57.5792C99.9895 57.8619 99.5625 57.5623 99.5625 56.9116C99.5625 56.2613 99.9895 55.5056 100.515 55.2237C101.041 54.941 101.467 55.2409 101.467 55.8912Z" fill="#333232"/>
<path d="M100.697 54.4798C100.697 54.604 100.615 54.7493 100.514 54.8045C100.413 54.8577 100.332 54.8005 100.332 54.676C100.332 54.5507 100.413 54.4054 100.514 54.3526C100.615 54.2981 100.697 54.3553 100.697 54.4798Z" fill="#333232"/>
<path d="M101.932 54.4798C101.932 54.604 101.851 54.7493 101.75 54.8045C101.649 54.8577 101.567 54.8005 101.567 54.676C101.567 54.5507 101.649 54.4054 101.75 54.3526C101.851 54.2981 101.932 54.3553 101.932 54.4798Z" fill="#333232"/>
<path d="M99.5623 55.7479C99.5623 55.8724 99.4812 56.0176 99.38 56.0716C99.2791 56.1256 99.1973 56.0677 99.1973 55.9432C99.1973 55.8179 99.2791 55.6738 99.38 55.6194C99.4812 55.5653 99.5623 55.6237 99.5623 55.7479Z" fill="#333232"/>
<path d="M101.932 56.8595C101.932 56.9848 101.851 57.1293 101.75 57.1833C101.649 57.2365 101.567 57.1802 101.567 57.0549C101.567 56.9307 101.649 56.7854 101.75 56.731C101.851 56.6769 101.932 56.7342 101.932 56.8595Z" fill="#333232"/>
<path d="M99.5623 58.1265C99.5623 58.2518 99.4812 58.397 99.38 58.4503C99.2791 58.5043 99.1973 58.4471 99.1973 58.3218C99.1973 58.1978 99.2791 58.0533 99.38 57.9981C99.4812 57.9453 99.5623 58.0024 99.5623 58.1265Z" fill="#333232"/>
<path d="M102.227 55.5775C102.227 55.7017 102.145 55.8473 102.045 55.9002C101.944 55.9542 101.862 55.8983 101.862 55.773C101.862 55.6488 101.944 55.5031 102.045 55.4491C102.145 55.3963 102.227 55.4522 102.227 55.5775Z" fill="#333232"/>
<path d="M99.197 57.1959C99.197 57.3204 99.1156 57.4656 99.0148 57.5197C98.9139 57.5737 98.832 57.517 98.832 57.3925C98.832 57.2672 98.9139 57.1219 99.0148 57.0686C99.1156 57.0145 99.197 57.0706 99.197 57.1959Z" fill="#333232"/>
<path d="M100.697 58.1265C100.697 58.2518 100.615 58.397 100.514 58.4503C100.413 58.5043 100.332 58.4471 100.332 58.3218C100.332 58.1978 100.413 58.0533 100.514 57.9981C100.615 57.9453 100.697 58.0024 100.697 58.1265Z" fill="#333232"/>
<path d="M68.1201 63.4178L86.8434 53.1196L95.3145 57.6573L76.5908 67.9567L68.1201 63.4178Z" fill="#636567"/>
<path d="M76.5913 67.9285V71.7664L95.315 61.4965V57.6562L76.5913 67.9285Z" fill="#535456"/>
<path d="M76.5913 70.6525V71.0883L94.5377 61.3259V60.889L76.5913 70.6525Z" fill="#878888"/>
<path d="M76.5913 69.7026V70.1376L94.5377 60.3749V59.9387L76.5913 69.7026Z" fill="#878888"/>
<path d="M72.684 67.7234C72.684 70.6166 70.7881 73.9784 68.45 75.2302C66.1118 76.4831 64.2158 75.153 64.2158 72.2603C64.2158 69.3676 66.1118 66.0065 68.45 64.7536C70.7881 63.5006 72.684 64.8307 72.684 67.7234Z" fill="#2C2A2A"/>
<path d="M68.8864 77.0926L65.8203 75.4915L71.2915 64.5878L74.2246 66.1103L68.8864 77.0926Z" fill="#2C2A2A"/>
<path d="M75.8652 69.368C75.8652 72.2619 73.9692 75.6218 71.6311 76.8748C69.2929 78.127 67.397 76.7977 67.397 73.9049C67.397 71.0121 69.2929 67.651 71.6311 66.398C73.9692 65.145 75.8652 66.4751 75.8652 69.368Z" fill="#434244"/>
<path d="M74.3771 70.2591C74.3771 72.1346 73.1487 74.3128 71.6326 75.1245C70.1168 75.9378 68.8877 75.0744 68.8877 73.1992C68.8877 71.3237 70.1168 69.1443 71.6326 68.3334C73.1487 67.5206 74.3771 68.3836 74.3771 70.2591Z" fill="#929292"/>
<path d="M73.6008 70.6739C73.6008 72.0201 72.7193 73.5828 71.6315 74.1654C70.544 74.7477 69.6621 74.129 69.6621 72.7841C69.6621 71.4379 70.544 69.8751 71.6315 69.2925C72.7193 68.7091 73.6008 69.3277 73.6008 70.6739Z" fill="white"/>
<path d="M72.5841 71.2198C72.5841 71.8694 72.1579 72.6251 71.6322 72.9066C71.1063 73.1893 70.6802 72.8905 70.6802 72.239C70.6802 71.5887 71.1063 70.833 71.6322 70.5522C72.1579 70.2696 72.5841 70.5683 72.5841 71.2198Z" fill="#333232"/>
<path d="M71.8148 69.8075C71.8148 69.9328 71.7329 70.0781 71.6321 70.1322C71.5312 70.1854 71.4497 70.1289 71.4497 70.0036C71.4497 69.8795 71.5312 69.7343 71.6321 69.6811C71.7329 69.6258 71.8148 69.683 71.8148 69.8075Z" fill="#333232"/>
<path d="M73.0491 69.8075C73.0491 69.9328 72.9672 70.0781 72.8663 70.1322C72.766 70.1854 72.6841 70.1289 72.6841 70.0036C72.6841 69.8795 72.766 69.7343 72.8663 69.6811C72.9672 69.6258 73.0491 69.683 73.0491 69.8075Z" fill="#333232"/>
<path d="M70.6789 71.0753C70.6789 71.2006 70.597 71.3458 70.4963 71.399C70.3958 71.453 70.3135 71.3959 70.3135 71.2706C70.3135 71.1465 70.3958 71.002 70.4963 70.9469C70.597 70.8929 70.6789 70.9512 70.6789 71.0753Z" fill="#333232"/>
<path d="M73.3428 70.905C73.3428 71.0291 73.261 71.1747 73.1597 71.2287C73.0588 71.2827 72.9771 71.2256 72.9771 71.1015C72.9771 70.9763 73.0588 70.8306 73.1597 70.7765C73.261 70.7233 73.3428 70.7805 73.3428 70.905Z" fill="#333232"/>
<path d="M63.8692 72.4549C63.8692 75.3476 61.9737 78.7083 59.6351 79.9605C57.2969 81.2135 55.4019 79.8842 55.4019 76.9914C55.4019 74.0986 57.2969 70.7375 59.6351 69.4845C61.9737 68.2316 63.8692 69.5616 63.8692 72.4549Z" fill="#2C2A2A"/>
<path d="M60.0724 81.8237L57.0059 80.2238L62.4767 69.3188L65.4103 70.8416L60.0724 81.8237Z" fill="#2C2A2A"/>
<path d="M67.0512 74.0996C67.0512 76.9924 65.1561 80.353 62.8171 81.606C60.479 82.8582 58.584 81.5289 58.584 78.6361C58.584 75.7421 60.479 72.3823 62.8171 71.1293C65.1561 69.8775 67.0512 71.2064 67.0512 74.0996Z" fill="#434244"/>
<path d="M62.4513 69.319L62.118 69.5023C58.6975 71.379 56.5991 74.7922 56.5991 78.4798L57.6161 77.9062L57.689 77.5123C58.1182 75.1841 59.4432 73.0779 61.418 71.5873L61.8653 71.2486L62.4513 69.319Z" fill="#929292"/>
<path d="M50.875 46.7104L114.206 12.8017L91.9868 0.895751L28.6562 34.8051L50.875 46.7104Z" fill="#F0F0EF"/>
<path d="M31.9811 35.4078L93.0462 2.75028L91.7887 2.14685L30.7231 34.8051L31.9811 35.4078Z" fill="#CCCCC9"/>
<path d="M40.4689 40.389L101.534 7.73142L100.276 7.12799L39.2109 39.7863L40.4689 40.389Z" fill="#CCCCC9"/>
<path d="M50.9924 45.5399L112.058 12.8815L110.8 12.2801L49.7349 44.9372L50.9924 45.5399Z" fill="#CCCCC9"/>
<path d="M29.5298 66.6668V70.0319L51.7487 81.928V78.572L29.5298 66.6668Z" fill="#2C2A2A"/>
<path d="M31.5695 70.1767L30.1255 69.4029V67.6154L31.5695 68.3896V70.1767Z" fill="#F03E7E"/>
<path d="M31.9571 68.181L31.5688 68.3897V70.1767L31.9571 69.9684V68.181Z" fill="#D22869"/>
<path d="M31.9585 68.1815L30.5137 67.4116L30.1255 67.6203L31.5694 68.3902L31.9585 68.1815Z" fill="#F03374"/>
<path d="M28.6562 34.8051V67.2147L50.8751 79.1113V46.7103L28.6562 34.8051Z" fill="#CCCCC9"/>
<path d="M50.0838 47.2315L29.4473 36.107V66.6928L29.4793 66.7097L50.0838 55.6776V47.2315Z" fill="#434244"/>
<path d="M50.0838 55.6778L29.4795 66.7098L50.0838 77.8084V55.6778Z" fill="#535456"/>
<path d="M87.0293 32.5689L69.8635 41.7595L67.2827 44.8963L87.0293 34.3259V32.5689Z" fill="white"/>
<path d="M87.0289 29.4706L74.0115 36.5695L71.4307 39.7059L87.0289 31.2287V29.4706Z" fill="white"/>
<path d="M50.8745 46.648V79.1113L114.205 45.2107V12.7399L50.8745 46.648Z" fill="#A1A1A0"/>
<path d="M54.5195 46.6241L53.6982 47.063V75.4252L54.5195 74.9863V46.6241Z" fill="#898B8B"/>
<path d="M58.1975 44.6568L57.376 45.0957V73.4579L58.1975 73.019V44.6568Z" fill="#898B8B"/>
<path d="M70.7846 37.8942L69.9629 38.3332V66.6954L70.7846 66.2565V37.8942Z" fill="#898B8B"/>
<path d="M74.4622 35.9271L73.6406 36.366V64.7283L74.4622 64.2894V35.9271Z" fill="#898B8B"/>
<path d="M78.3835 33.8832L77.562 34.3222V62.6843L78.3835 62.2453V33.8832Z" fill="#898B8B"/>
<path d="M82.0618 31.9156L81.2407 32.3545V60.7169L82.0618 60.2779V31.9156Z" fill="#898B8B"/>
<path d="M86.0545 29.6325L85.2334 30.0727V58.4349L86.0545 57.9952V29.6325Z" fill="#898B8B"/>
<path d="M89.7322 27.6652L88.9106 28.1053V56.4675L89.7322 56.0274V27.6652Z" fill="#898B8B"/>
<path d="M104.789 19.5441L103.968 19.9831V48.3452L104.789 47.9062V19.5441Z" fill="#898B8B"/>
<path d="M108.468 17.5762L107.646 18.0164V46.3774L108.468 45.9384V17.5762Z" fill="#898B8B"/>
<path d="M110.793 45.6119L112.237 44.8369V43.051L110.793 43.8246V45.6119Z" fill="white"/>
<path d="M110.406 43.6171L110.794 43.8246V45.6119L110.406 45.4035V43.6171Z" fill="#BAB9B8"/>
<path d="M110.406 43.6169L111.85 42.846L112.238 43.0535L110.794 43.8244L110.406 43.6169Z" fill="#CFCECD"/>
<path d="M63.4697 71.0701L64.9137 70.2964V68.5101L63.4697 69.283V71.0701Z" fill="white"/>
<path d="M63.0815 69.0755L63.4698 69.283V71.0701L63.0815 70.8618V69.0755Z" fill="#BAB9B8"/>
<path d="M63.0815 69.0754L64.5255 68.3044L64.9138 68.512L63.4698 69.2829L63.0815 69.0754Z" fill="#CFCECD"/>
<path d="M129.846 14.0288L118.712 20.3708V45.0351L123.612 42.4089C124.16 38.8987 126.466 35.247 129.23 33.7654C131.993 32.2849 134.3 33.4666 134.847 36.3907L138.503 34.4322V18.6656C138.503 14.5441 133.693 11.9669 129.846 14.0288Z" fill="#286CD2"/>
<path d="M126.941 15.7296L126.235 16.1086V36.6722L126.941 35.8633V15.7296Z" fill="#2421B7"/>
<path d="M129.23 34.2936C126.725 35.6359 124.635 38.9457 124.138 42.1283L123.612 42.409C124.16 38.8987 126.466 35.247 129.23 33.7654C131.994 32.2849 134.3 33.4666 134.848 36.3908L134.321 36.6723C133.826 34.0211 131.734 32.9518 129.23 34.2936Z" fill="white"/>
<path d="M118.935 18.7774C118.935 18.7774 125.49 15.0643 127.847 13.7952C129.164 13.0857 130.652 12.4921 130.652 12.4921C130.652 12.4921 130.404 10.6459 127.42 11.2545C124.146 11.9229 118.935 13.9899 118.935 13.9899V18.7774Z" fill="#286CD2"/>
<path d="M129.956 21.5679C129.956 20.5361 130.637 19.3275 131.471 18.8815L134.577 17.2165C134.907 17.04 135.209 17.013 135.459 17.1011C135.209 16.619 134.699 16.4636 134.107 16.7804L131.002 18.4445C130.168 18.8912 129.485 20.1012 129.485 21.1317V27.7886C129.485 28.413 129.738 28.8301 130.12 28.9651C130.019 28.769 129.956 28.5231 129.956 28.2236V21.5679Z" fill="#333232"/>
<path d="M131.002 28.8511L134.108 27.187C134.942 26.741 135.625 25.5319 135.625 24.4997V17.8437C135.625 17.545 135.561 17.2994 135.459 17.101C135.21 17.0129 134.907 17.0399 134.578 17.2164L131.472 18.8814C130.638 19.3273 129.957 20.536 129.957 21.5678V28.2235C129.957 28.523 130.019 28.7688 130.121 28.965C130.369 29.0543 130.673 29.0273 131.002 28.8511Z" fill="#434244"/>
<path d="M140.283 32.7874L135.95 35.0968V37.212L140.283 34.8924V32.7874Z" fill="#CCCCC9"/>
<path d="M134.781 34.4722V36.5831L135.95 37.212V35.0967L134.781 34.4722Z" fill="#A1A1A0"/>
<path d="M134.781 34.4724L138.503 32.5307V31.8232L140.282 32.7875L135.95 35.0969L134.781 34.4724Z" fill="#F0F0EF"/>
<path d="M120.658 40.8565L122.102 40.0824V38.2953L120.658 39.0691V40.8565Z" fill="white"/>
<path d="M120.27 38.8608L120.658 39.0691V40.8565L120.27 40.6478V38.8608Z" fill="#BAB9B8"/>
<path d="M120.27 38.8608L121.713 38.091L122.102 38.2993L120.658 39.069L120.27 38.8608Z" fill="#CFCECD"/>
<path d="M50.0844 54.2382L42.7974 50.3298V61.3191L50.0844 65.2381V54.2382Z" fill="#D9A14E"/>
<path d="M49.3304 46.8244L42.7974 50.3289L50.0844 54.2382V47.2535L49.3304 46.8244Z" fill="#FDDDB6"/>
<path d="M45.7134 54.543L47.4624 55.4843V52.8268L45.7134 51.8836V54.543Z" fill="#464648"/>
<path d="M50.0837 49.539L45.7134 51.8836L47.4624 52.8299L50.0837 51.4227V49.539Z" fill="#656769"/>
<path d="M44.6043 54.0027V55.6276L43.3447 54.9499V53.3253L44.6043 54.0027Z" fill="#464648"/>
<path d="M40.8933 70.8156L40.8958 65.7985L33.0522 61.5905V66.5978L40.8933 70.8156Z" fill="#D9A14E"/>
<path d="M40.8921 70.8156L40.8946 65.7985L48.7386 61.5905V66.5978L40.8921 70.8156Z" fill="#E6AF64"/>
<path d="M48.7398 61.5904L40.8958 65.7975L33.0522 61.5904L40.8933 57.3847L48.7398 61.5904Z" fill="#FDDDB6"/>
<path d="M35.9683 65.8048L37.7173 66.7468V64.0874L35.9683 63.1453V65.8048Z" fill="#464648"/>
<path d="M35.9683 63.1453L43.8009 58.9432L45.5537 59.8825L37.7173 64.0917L35.9683 63.1453Z" fill="#656769"/>
<path d="M39.8563 69.5124V69.0445L37.2231 67.627V68.102L39.8563 69.5124Z" fill="#464648"/>
<path d="M39.8563 68.6754V68.2074L37.2231 66.7901V67.2642L39.8563 68.6754Z" fill="#464648"/>
<path d="M34.8586 65.2633V66.8882L33.5991 66.2125V64.5867L34.8586 65.2633Z" fill="#464648"/>
<path d="M47.1587 65.3669V67.0598L48.4183 66.384V64.6922L47.1587 65.3669Z" fill="#464648"/>
<path d="M45.4399 66.2918V67.9849L46.6995 67.3091V65.6172L45.4399 66.2918Z" fill="#464648"/>
<path d="M41.2358 66.0063V68.4402L43.8243 67.0517V64.6158L41.2358 66.0063Z" fill="white"/>
<path d="M41.5532 66.5041V66.1083L43.5892 65.019V65.4086L41.5532 66.5041Z" fill="#464648"/>
<path d="M50.0656 70.6961L43.4238 67.1337V72.1398L50.0656 75.7123V70.6961Z" fill="#D9A14E"/>
<path d="M50.0656 63.5748L43.4238 67.1332L50.0656 70.6956V63.5748Z" fill="#FDDDB6"/>
<path d="M46.3394 71.3469L48.0884 72.2881V69.6307L46.3394 68.6867V71.3469Z" fill="#464648"/>
<path d="M50.0653 66.6899L46.3394 68.6867L48.0884 69.6339L50.0653 68.5732V66.6899Z" fill="#656769"/>
<path d="M50.0663 65.2744L47.1514 63.7109V66.641L50.0663 68.2095V65.2744Z" fill="#D9A14E"/>
<path d="M50.0663 62.1541L47.1514 63.716L50.0663 65.2795V62.1541Z" fill="#FDDDB6"/>
<path d="M50.0663 65.2787L48.4312 64.3973V65.942L50.0663 66.8234V65.2787Z" fill="#464648"/>
<path d="M40.8103 64.5047L40.812 61.5728L35.7471 58.8566V61.7893L40.8103 64.5047Z" fill="#D9A14E"/>
<path d="M40.811 64.5047L40.8128 61.5728L46.7267 58.4012V61.3324L40.811 64.5047Z" fill="#E6AF64"/>
<path d="M46.726 58.4011L40.812 61.5727L35.7471 58.8565L41.6572 55.6857L46.726 58.4011Z" fill="#FDDDB6"/>
<path d="M40.4329 63.9686V63.6667L38.7324 62.7504V63.0575L40.4329 63.9686Z" fill="#464648"/>
<path d="M40.4329 63.4268V63.1242L38.7324 62.2099V62.5169L40.4329 63.4268Z" fill="#464648"/>
<path d="M45.458 59.591V60.9544L46.4724 60.4101V59.0467L45.458 59.591Z" fill="#464648"/>
<path d="M41.208 61.8785V63.5053L43.796 62.1188V60.4881L41.208 61.8785Z" fill="white"/>
<path d="M41.5254 62.3757V61.9798L43.5615 60.8901V61.2801L41.5254 62.3757Z" fill="#464648"/>
<path d="M37.0269 61.0816L38.7763 62.0248V60.4802L37.0269 59.5368V61.0816Z" fill="#464648"/>
<path d="M37.0269 59.5369L42.9327 56.3685L44.6864 57.3086L38.7763 60.4833L37.0269 59.5369Z" fill="#656769"/>
<path d="M60.2949 83.6964L60.965 83.2343V52.6739L60.2949 53.1367V83.6964Z" fill="#898B8B"/>
<path d="M70.1997 105.115L74.8394 107.6V112.01L70.1997 109.525V105.115Z" fill="#2C2A2A"/>
<path d="M109.608 87.3421C109.608 90.2237 107.72 93.5701 105.392 94.8178C103.063 96.0644 101.175 94.7406 101.175 91.859C101.175 88.9791 103.063 85.6319 105.392 84.3841C107.72 83.1364 109.608 84.4614 109.608 87.3421Z" fill="#2C2A2A"/>
<path d="M105.828 96.6733L102.775 95.0789L108.223 84.2196L111.144 85.7359L105.828 96.6733Z" fill="#2C2A2A"/>
<path d="M112.778 88.9808C112.778 91.8609 110.89 95.208 108.562 96.4557C106.233 97.7035 104.345 96.3785 104.345 93.4977C104.345 90.6162 106.233 87.2698 108.562 86.022C110.89 84.7755 112.778 86.0993 112.778 88.9808Z" fill="#434244"/>
<path d="M111.296 89.8664C111.296 91.7342 110.071 93.9041 108.562 94.7129C107.052 95.5212 105.829 94.663 105.829 92.7952C105.829 90.9274 107.052 88.7583 108.562 87.9487C110.071 87.1405 111.296 87.9986 111.296 89.8664Z" fill="#929292"/>
<path d="M110.523 90.2794C110.523 91.62 109.645 93.1774 108.562 93.7573C107.479 94.3382 106.6 93.7221 106.6 92.3815C106.6 91.041 107.479 89.4847 108.562 88.9038C109.645 88.3239 110.523 88.9408 110.523 90.2794Z" fill="white"/>
<path d="M109.509 90.8226C109.509 91.4714 109.084 92.2244 108.562 92.5047C108.037 92.7843 107.613 92.4868 107.613 91.8391C107.613 91.1922 108.037 90.4393 108.562 90.1578C109.084 89.8775 109.509 90.1761 109.509 90.8226Z" fill="#333232"/>
<path d="M108.744 89.4185C108.744 89.5421 108.662 89.6867 108.563 89.7398C108.462 89.7936 108.381 89.7366 108.381 89.6118C108.381 89.4882 108.462 89.3444 108.563 89.2906C108.662 89.2375 108.744 89.2937 108.744 89.4185Z" fill="#333232"/>
<path d="M109.973 89.4185C109.973 89.5421 109.892 89.6867 109.791 89.7398C109.692 89.7936 109.609 89.7366 109.609 89.6118C109.609 89.4882 109.692 89.3444 109.791 89.2906C109.892 89.2375 109.973 89.2937 109.973 89.4185Z" fill="#333232"/>
<path d="M107.613 90.6809C107.613 90.8046 107.532 90.9485 107.431 91.0023C107.331 91.0565 107.249 90.9996 107.249 90.8748C107.249 90.7508 107.331 90.6069 107.431 90.5531C107.532 90.4993 107.613 90.5562 107.613 90.6809Z" fill="#333232"/>
<path d="M109.973 91.7869C109.973 91.9109 109.892 92.0555 109.791 92.1093C109.692 92.1635 109.609 92.1066 109.609 91.9826C109.609 91.8578 109.692 91.7132 109.791 91.6594C109.892 91.6064 109.973 91.6633 109.973 91.7869Z" fill="#333232"/>
<path d="M107.613 93.05C107.613 93.1735 107.532 93.3173 107.431 93.3723C107.331 93.4261 107.249 93.368 107.249 93.2445C107.249 93.1197 107.331 92.9759 107.431 92.9221C107.532 92.8682 107.613 92.9252 107.613 93.05Z" fill="#333232"/>
<path d="M110.267 90.5099C110.267 90.6347 110.185 90.7786 110.085 90.8325C109.984 90.8863 109.903 90.8294 109.903 90.7046C109.903 90.5809 109.984 90.437 110.085 90.382C110.185 90.3282 110.267 90.3863 110.267 90.5099Z" fill="#333232"/>
<path d="M107.249 92.1227C107.249 92.2474 107.168 92.3921 107.067 92.4447C106.967 92.4989 106.885 92.442 106.885 92.3172C106.885 92.1932 106.967 92.0497 107.067 91.9955C107.168 91.9409 107.249 91.9987 107.249 92.1227Z" fill="#333232"/>
<path d="M108.744 93.05C108.744 93.1735 108.662 93.3173 108.563 93.3723C108.462 93.4261 108.381 93.368 108.381 93.2445C108.381 93.1197 108.462 92.9759 108.563 92.9221C108.662 92.8682 108.744 92.9252 108.744 93.05Z" fill="#333232"/>
<path d="M99.7126 92.7201C99.7126 95.6008 97.8247 98.9468 95.4956 100.195C93.1677 101.442 91.2798 100.118 91.2798 97.237C91.2798 94.3563 93.1677 91.0091 95.4956 89.7626C97.8247 88.5148 99.7126 89.8382 99.7126 92.7201Z" fill="#2C2A2A"/>
<path d="M95.9304 102.05L92.8774 100.456L98.3251 89.5977L101.247 91.1122L95.9304 102.05Z" fill="#2C2A2A"/>
<path d="M102.88 94.357C102.88 97.2382 100.993 100.586 98.6641 101.833C96.3351 103.08 94.4482 101.756 94.4482 98.8751C94.4482 95.9943 96.3351 92.6472 98.6641 91.3994C100.993 90.1517 102.88 91.4774 102.88 94.357Z" fill="#434244"/>
<path d="M101.397 95.2447C101.397 97.1124 100.173 99.2815 98.6636 100.091C97.1533 100.9 95.9302 100.041 95.9302 98.1734C95.9302 96.3061 97.1533 94.1358 98.6636 93.3274C100.173 92.5187 101.397 93.3769 101.397 95.2447Z" fill="#929292"/>
<path d="M100.624 95.658C100.624 96.9985 99.7451 98.5547 98.6629 99.1358C97.5796 99.7155 96.7007 99.0986 96.7007 97.76C96.7007 96.4195 97.5796 94.8625 98.6629 94.2823C99.7451 93.7017 100.624 94.3174 100.624 95.658Z" fill="white"/>
<path d="M99.6128 96.2013C99.6128 96.8489 99.1889 97.6007 98.665 97.8822C98.1411 98.1626 97.7173 97.8642 97.7173 97.2174C97.7173 96.5686 98.1411 95.8161 98.665 95.5353C99.1889 95.2557 99.6128 95.5533 99.6128 96.2013Z" fill="#333232"/>
<path d="M98.8454 94.795C98.8454 94.9198 98.7647 95.0636 98.6647 95.1175C98.5647 95.1713 98.4829 95.1135 98.4829 94.9895C98.4829 94.866 98.5647 94.7221 98.6647 94.6675C98.7647 94.6133 98.8454 94.6714 98.8454 94.795Z" fill="#333232"/>
<path d="M100.075 94.795C100.075 94.9198 99.9933 95.0636 99.8932 95.1175C99.7921 95.1713 99.7114 95.1135 99.7114 94.9895C99.7114 94.866 99.7921 94.7221 99.8932 94.6675C99.9933 94.6133 100.075 94.6714 100.075 94.795Z" fill="#333232"/>
<path d="M97.7167 96.0582C97.7167 96.183 97.6338 96.3266 97.5348 96.3808C97.4337 96.4334 97.353 96.3765 97.353 96.2529C97.353 96.1288 97.4337 95.9842 97.5348 95.9304C97.6338 95.8766 97.7167 95.9335 97.7167 96.0582Z" fill="#333232"/>
<path d="M100.075 97.1645C100.075 97.2892 99.9933 97.4331 99.8932 97.4869C99.7921 97.5407 99.7114 97.4838 99.7114 97.359C99.7114 97.2353 99.7921 97.0915 99.8932 97.0377C99.9933 96.9839 100.075 97.0408 100.075 97.1645Z" fill="#333232"/>
<path d="M97.7167 98.4272C97.7167 98.552 97.6338 98.6954 97.5348 98.7492C97.4337 98.8034 97.353 98.7465 97.353 98.6218C97.353 98.4978 97.4337 98.3532 97.5348 98.3001C97.6338 98.2456 97.7167 98.3033 97.7167 98.4272Z" fill="#333232"/>
<path d="M100.368 95.8883C100.368 96.0122 100.287 96.1562 100.187 96.21C100.087 96.265 100.005 96.2069 100.005 96.0832C100.005 95.9584 100.087 95.8134 100.187 95.7608C100.287 95.707 100.368 95.7635 100.368 95.8883Z" fill="#333232"/>
<path d="M97.3534 97.5007C97.3534 97.6243 97.2716 97.7682 97.1716 97.8232C97.0704 97.877 96.9897 97.8193 96.9897 97.6953C96.9897 97.5705 97.0704 97.4266 97.1716 97.3728C97.2716 97.319 97.3534 97.3767 97.3534 97.5007Z" fill="#333232"/>
<path d="M98.8454 98.4272C98.8454 98.552 98.7647 98.6954 98.6647 98.7492C98.5647 98.8034 98.4829 98.7465 98.4829 98.6218C98.4829 98.4978 98.5647 98.3532 98.6647 98.3001C98.7647 98.2456 98.8454 98.3033 98.8454 98.4272Z" fill="#333232"/>
<path d="M66.4038 103.696L85.0497 93.4395L93.4858 97.9592L74.8398 108.215L66.4038 103.696Z" fill="#636567"/>
<path d="M74.8398 108.189V112.009L93.4858 101.783V97.9589L74.8398 108.189Z" fill="#535456"/>
<path d="M74.8398 110.9V111.334L92.7113 101.612V101.177L74.8398 110.9Z" fill="#878888"/>
<path d="M74.8398 109.954V110.389L92.7113 100.667V100.232L74.8398 109.954Z" fill="#878888"/>
<path d="M70.9499 107.984C70.9499 110.865 69.0619 114.212 66.734 115.458C64.405 116.706 62.5171 115.383 62.5171 112.501C62.5171 109.62 64.405 106.274 66.734 105.026C69.0619 103.779 70.9499 105.103 70.9499 107.984Z" fill="#2C2A2A"/>
<path d="M67.1677 117.314L64.1147 115.721L69.5634 104.861L72.484 106.377L67.1677 117.314Z" fill="#2C2A2A"/>
<path d="M74.1168 109.621C74.1168 112.503 72.2288 115.85 69.9009 117.098C67.5719 118.344 65.6851 117.021 65.6851 114.14C65.6851 111.258 67.5719 107.912 69.9009 106.665C72.2288 105.417 74.1168 106.741 74.1168 109.621Z" fill="#434244"/>
<path d="M72.6349 110.508C72.6349 112.376 71.4118 114.546 69.9014 115.355C68.3922 116.163 67.168 115.305 67.168 113.437C67.168 111.569 68.3922 109.4 69.9014 108.59C71.4118 107.782 72.6349 108.64 72.6349 110.508Z" fill="#929292"/>
<path d="M71.8622 110.922C71.8622 112.262 70.9843 113.818 69.901 114.399C68.8178 114.979 67.9399 114.363 67.9399 113.024C67.9399 111.683 68.8178 110.126 69.901 109.546C70.9843 108.966 71.8622 109.582 71.8622 110.922Z" fill="white"/>
<path d="M70.8482 111.465C70.8482 112.112 70.4243 112.865 69.9005 113.146C69.3766 113.426 68.9517 113.129 68.9517 112.481C68.9517 111.833 69.3766 111.08 69.9005 110.8C70.4243 110.519 70.8482 110.817 70.8482 111.465Z" fill="#333232"/>
<path d="M70.0824 110.06C70.0824 110.184 70.0006 110.328 69.9006 110.381C69.7994 110.435 69.7188 110.378 69.7188 110.253C69.7188 110.13 69.7994 109.986 69.9006 109.932C70.0006 109.877 70.0824 109.935 70.0824 110.06Z" fill="#333232"/>
<path d="M71.3123 110.06C71.3123 110.184 71.2316 110.328 71.1305 110.381C71.0305 110.435 70.9487 110.378 70.9487 110.253C70.9487 110.13 71.0305 109.986 71.1305 109.932C71.2316 109.877 71.3123 109.935 71.3123 110.06Z" fill="#333232"/>
<path d="M68.9525 111.323C68.9525 111.447 68.8718 111.59 68.7707 111.644C68.6717 111.697 68.5889 111.641 68.5889 111.516C68.5889 111.392 68.6717 111.248 68.7707 111.195C68.8718 111.141 68.9525 111.198 68.9525 111.323Z" fill="#333232"/>
<path d="M71.3123 112.429C71.3123 112.553 71.2316 112.697 71.1305 112.751C71.0305 112.806 70.9487 112.747 70.9487 112.624C70.9487 112.499 71.0305 112.355 71.1305 112.301C71.2316 112.247 71.3123 112.304 71.3123 112.429Z" fill="#333232"/>
<path d="M68.9525 113.692C68.9525 113.815 68.8718 113.959 68.7707 114.013C68.6717 114.068 68.5889 114.01 68.5889 113.886C68.5889 113.761 68.6717 113.617 68.7707 113.564C68.8718 113.51 68.9525 113.567 68.9525 113.692Z" fill="#333232"/>
<path d="M71.6067 111.152C71.6067 111.276 71.525 111.42 71.425 111.474C71.3238 111.528 71.2432 111.47 71.2432 111.347C71.2432 111.223 71.3238 111.077 71.425 111.024C71.525 110.97 71.6067 111.028 71.6067 111.152Z" fill="#333232"/>
<path d="M68.5877 112.764C68.5877 112.889 68.507 113.032 68.4069 113.087C68.3069 113.14 68.2251 113.084 68.2251 112.959C68.2251 112.835 68.3069 112.691 68.4069 112.636C68.507 112.582 68.5877 112.64 68.5877 112.764Z" fill="#333232"/>
<path d="M70.0824 113.692C70.0824 113.815 70.0006 113.959 69.9006 114.013C69.7994 114.068 69.7188 114.01 69.7188 113.886C69.7188 113.761 69.7994 113.617 69.9006 113.564C70.0006 113.51 70.0824 113.567 70.0824 113.692Z" fill="#333232"/>
<path d="M62.1726 112.695C62.1726 115.576 60.2846 118.923 57.9567 120.171C55.6277 121.418 53.7397 120.094 53.7397 117.212C53.7397 114.332 55.6277 110.986 57.9567 109.738C60.2846 108.49 62.1726 109.815 62.1726 112.695Z" fill="#2C2A2A"/>
<path d="M58.3905 122.026L55.3364 120.431L60.7862 109.573L63.7058 111.089L58.3905 122.026Z" fill="#2C2A2A"/>
<path d="M65.3405 114.333C65.3405 117.214 63.4526 120.56 61.1247 121.808C58.7957 123.055 56.9077 121.731 56.9077 118.85C56.9077 115.969 58.7957 112.622 61.1247 111.375C63.4526 110.128 65.3405 111.451 65.3405 114.333Z" fill="#434244"/>
<path d="M63.8576 115.219C63.8576 117.087 62.6334 119.257 61.1241 120.065C59.6149 120.874 58.3906 120.015 58.3906 118.147C58.3906 116.279 59.6149 114.11 61.1241 113.302C62.6334 112.492 63.8576 113.352 63.8576 115.219Z" fill="#929292"/>
<path d="M63.0848 115.633C63.0848 116.974 62.207 118.53 61.1237 119.11C60.0404 119.691 59.1626 119.075 59.1626 117.735C59.1626 116.395 60.0404 114.838 61.1237 114.258C62.207 113.678 63.0848 114.294 63.0848 115.633Z" fill="white"/>
<path d="M62.0718 116.176C62.0718 116.824 61.6469 117.577 61.1241 117.857C60.6002 118.137 60.1753 117.84 60.1753 117.191C60.1753 116.545 60.6002 115.792 61.1241 115.511C61.6469 115.231 62.0718 115.528 62.0718 116.176Z" fill="#333232"/>
<path d="M61.3064 114.772C61.3064 114.895 61.2247 115.039 61.1247 115.093C61.0235 115.147 60.9429 115.09 60.9429 114.965C60.9429 114.841 61.0235 114.697 61.1247 114.644C61.2247 114.59 61.3064 114.647 61.3064 114.772Z" fill="#333232"/>
<path d="M62.5354 114.772C62.5354 114.895 62.4537 115.039 62.3537 115.093C62.2536 115.147 62.1719 115.09 62.1719 114.965C62.1719 114.841 62.2536 114.697 62.3537 114.644C62.4537 114.59 62.5354 114.647 62.5354 114.772Z" fill="#333232"/>
<path d="M60.1756 116.034C60.1756 116.157 60.0949 116.302 59.9938 116.355C59.8938 116.409 59.812 116.353 59.812 116.228C59.812 116.105 59.8938 115.959 59.9938 115.906C60.0949 115.853 60.1756 115.909 60.1756 116.034Z" fill="#333232"/>
<path d="M62.5354 117.141C62.5354 117.264 62.4537 117.408 62.3537 117.463C62.2536 117.517 62.1719 117.459 62.1719 117.335C62.1719 117.211 62.2536 117.066 62.3537 117.013C62.4537 116.959 62.5354 117.016 62.5354 117.141Z" fill="#333232"/>
<path d="M60.1756 118.402C60.1756 118.526 60.0949 118.671 59.9938 118.726C59.8938 118.779 59.812 118.722 59.812 118.598C59.812 118.473 59.8938 118.328 59.9938 118.274C60.0949 118.221 60.1756 118.278 60.1756 118.402Z" fill="#333232"/>
<path d="M62.8284 115.863C62.8284 115.987 62.7467 116.132 62.6466 116.186C62.5455 116.239 62.4648 116.182 62.4648 116.058C62.4648 115.934 62.5455 115.79 62.6466 115.735C62.7467 115.682 62.8284 115.739 62.8284 115.863Z" fill="#333232"/>
<path d="M59.8119 117.476C59.8119 117.6 59.7312 117.744 59.63 117.798C59.5311 117.852 59.4482 117.795 59.4482 117.67C59.4482 117.547 59.5311 117.402 59.63 117.349C59.7312 117.294 59.8119 117.352 59.8119 117.476Z" fill="#333232"/>
<path d="M61.3064 118.402C61.3064 118.526 61.2247 118.671 61.1247 118.726C61.0235 118.779 60.9429 118.722 60.9429 118.598C60.9429 118.473 61.0235 118.328 61.1247 118.274C61.2247 118.221 61.3064 118.278 61.3064 118.402Z" fill="#333232"/>
<path d="M41.6113 126.029L38.3776 124.216L36.1992 122.598C36.1992 122.598 37.9322 122.005 38.0958 121.91C38.2582 121.814 42.4493 123.203 41.6113 126.029Z" fill="#232221"/>
<path d="M32.646 121.685L47.6785 113.708L56.1146 118.227L41.0132 126.255L32.646 121.685Z" fill="#636567"/>
<path d="M56.1151 118.228L40.9395 126.282V130.101L56.1151 122.053V118.228Z" fill="#535456"/>
<path d="M50.6363 123.888L42.3843 128.285V128.718L50.6363 124.323V123.888Z" fill="#878888"/>
<path d="M50.6363 122.943L42.3843 127.339V127.772L50.6363 123.378V122.943Z" fill="#878888"/>
<path d="M49.23 87.0588L112.297 53.2914L90.1709 41.4346L27.104 75.202L49.23 87.0588Z" fill="#F0F0EF"/>
<path d="M30.4163 75.8028L91.2273 43.2803L89.9741 42.6814L29.1641 75.2019L30.4163 75.8028Z" fill="#CCCCC9"/>
<path d="M49.3494 85.8913L110.16 53.3709L108.907 52.77L48.0972 85.2912L49.3494 85.8913Z" fill="#CCCCC9"/>
<path d="M27.104 75.2016V107.476L49.23 119.324V87.0584L27.104 75.2016Z" fill="#CCCCC9"/>
<path d="M85.2354 72.9749L68.1418 82.1273L65.5708 85.2509L85.2354 74.7246V72.9749Z" fill="white"/>
<path d="M85.2349 69.89L72.271 76.9592L69.7021 80.0825L85.2349 71.6407V69.89Z" fill="white"/>
<path d="M49.2314 86.9953V119.324L112.298 85.565V53.2282L49.2314 86.9953Z" fill="#A1A1A0"/>
<path d="M52.86 86.9715L52.0425 87.4098V115.654L52.86 115.216V86.9715Z" fill="#898B8B"/>
<path d="M56.5241 85.012L55.7065 85.4512V113.695L56.5241 113.256V85.012Z" fill="#898B8B"/>
<path d="M69.0569 78.278L68.2383 78.7151V106.959L69.0569 106.522V78.278Z" fill="#898B8B"/>
<path d="M72.7199 76.319L71.9033 76.757V105L72.7199 104.563V76.319Z" fill="#898B8B"/>
<path d="M76.6258 74.2834L75.8071 74.7216V102.965L76.6258 102.528V74.2834Z" fill="#898B8B"/>
<path d="M80.2877 72.3238L79.4712 72.7617V101.006L80.2877 100.568V72.3238Z" fill="#898B8B"/>
<path d="M84.2654 70.0516L83.4468 70.4899V98.7341L84.2654 98.2958V70.0516Z" fill="#898B8B"/>
<path d="M87.928 68.0925L87.1094 68.5308V96.7749L87.928 96.3365V68.0925Z" fill="#898B8B"/>
<path d="M102.924 60.0039L102.105 60.4422V88.6864L102.924 88.248V60.0039Z" fill="#898B8B"/>
<path d="M106.585 58.0445L105.767 58.4828V86.7271L106.585 86.2888V58.0445Z" fill="#898B8B"/>
<path d="M38.1959 125.72C38.1959 128.601 36.308 131.948 33.979 133.196C31.65 134.443 29.7632 133.118 29.7632 130.238C29.7632 127.357 31.65 124.009 33.979 122.763C36.308 121.515 38.1959 122.839 38.1959 125.72Z" fill="#2C2A2A"/>
<path d="M34.4138 135.05L31.3608 133.456L36.8095 122.597L39.7302 124.113L34.4138 135.05Z" fill="#2C2A2A"/>
<path d="M41.364 127.358C41.364 130.24 39.476 133.586 37.147 134.833C34.8191 136.08 32.9312 134.757 32.9312 131.875C32.9312 128.995 34.8191 125.648 37.147 124.401C39.476 123.153 41.364 124.478 41.364 127.358Z" fill="#434244"/>
<path d="M39.8805 128.245C39.8805 130.113 38.6563 132.282 37.147 133.09C35.6378 133.9 34.4136 133.041 34.4136 131.173C34.4136 129.305 35.6378 127.135 37.147 126.328C38.6563 125.518 39.8805 126.378 39.8805 128.245Z" fill="#929292"/>
<path d="M39.1077 128.658C39.1077 129.998 38.2299 131.555 37.1466 132.135C36.0634 132.715 35.1855 132.099 35.1855 130.76C35.1855 129.419 36.0634 127.863 37.1466 127.283C38.2299 126.702 39.1077 127.318 39.1077 128.658Z" fill="white"/>
<path d="M38.0958 129.201C38.0958 129.848 37.6708 130.601 37.1469 130.881C36.6241 131.162 36.1992 130.864 36.1992 130.217C36.1992 129.569 36.6241 128.816 37.1469 128.536C37.6708 128.255 38.0958 128.552 38.0958 129.201Z" fill="#333232"/>
<path d="M37.3285 127.795C37.3285 127.92 37.2478 128.065 37.1467 128.119C37.0466 128.171 36.9648 128.116 36.9648 127.991C36.9648 127.867 37.0466 127.722 37.1467 127.668C37.2478 127.615 37.3285 127.671 37.3285 127.795Z" fill="#333232"/>
<path d="M38.5584 127.795C38.5584 127.92 38.4766 128.065 38.3776 128.119C38.2765 128.171 38.1958 128.116 38.1958 127.991C38.1958 127.867 38.2765 127.722 38.3776 127.668C38.4766 127.615 38.5584 127.671 38.5584 127.795Z" fill="#333232"/>
<path d="M36.199 129.058C36.199 129.183 36.1173 129.327 36.0172 129.38C35.9161 129.434 35.8354 129.376 35.8354 129.253C35.8354 129.129 35.9161 128.985 36.0172 128.93C36.1173 128.876 36.199 128.934 36.199 129.058Z" fill="#333232"/>
<path d="M38.5584 130.165C38.5584 130.289 38.4766 130.434 38.3776 130.488C38.2765 130.54 38.1958 130.485 38.1958 130.36C38.1958 130.236 38.2765 130.091 38.3776 130.039C38.4766 129.984 38.5584 130.041 38.5584 130.165Z" fill="#333232"/>
<path d="M36.199 131.428C36.199 131.552 36.1173 131.696 36.0172 131.749C35.9161 131.803 35.8354 131.746 35.8354 131.621C35.8354 131.497 35.9161 131.354 36.0172 131.3C36.1173 131.246 36.199 131.303 36.199 131.428Z" fill="#333232"/>
<path d="M38.8504 128.889C38.8504 129.012 38.7697 129.157 38.6686 129.211C38.5686 129.265 38.4868 129.207 38.4868 129.083C38.4868 128.958 38.5686 128.815 38.6686 128.761C38.7697 128.708 38.8504 128.764 38.8504 128.889Z" fill="#333232"/>
<path d="M35.8353 130.501C35.8353 130.624 35.7535 130.769 35.6535 130.824C35.5534 130.877 35.4717 130.82 35.4717 130.696C35.4717 130.571 35.5534 130.426 35.6535 130.373C35.7535 130.32 35.8353 130.377 35.8353 130.501Z" fill="#333232"/>
<path d="M37.3285 131.428C37.3285 131.552 37.2478 131.696 37.1467 131.749C37.0466 131.803 36.9648 131.746 36.9648 131.621C36.9648 131.497 37.0466 131.354 37.1467 131.3C37.2478 131.246 37.3285 131.303 37.3285 131.428Z" fill="#333232"/>
<path d="M36.5413 106.381L23.7775 100.824V86.9932L7.93604 95.4799L34.6609 109.798L36.5413 106.381Z" fill="#F03E7E"/>
<path d="M3.12624 103.965L2.18604 113.216L2.31192 123.431L8.72553 119.995L24.3852 128.49L32.562 113.618L4.88618 98.7924C3.90294 100.55 3.23166 102.588 3.12624 103.965Z" fill="#0FB347"/>
<path d="M7.9356 95.4802L7.82264 95.5415C6.72215 96.0772 5.69696 97.3401 4.88477 98.7926L32.5606 113.619L34.6604 109.799L7.9356 95.4802Z" fill="#1BD85C"/>
<path d="M45.7742 98.862L29.8198 107.41C27.3853 108.593 25.3135 113.319 25.122 115.832L24.3076 125.067V135.299L30.9461 131.744C31.4915 128.247 33.7882 124.61 36.541 123.134C39.2928 121.661 41.5895 122.837 42.1349 125.75L45.7742 123.799V98.862Z" fill="#0B8234"/>
<path d="M34.4556 124.694V104.972L34.9181 104.725V124.694H34.4556Z" fill="#0A5524"/>
<path d="M36.5413 123.662C34.0455 124.998 31.964 128.294 31.4691 131.463L30.9463 131.744C31.4917 128.248 33.7884 124.61 36.5413 123.135C39.293 121.662 41.5898 122.838 42.1352 125.75L41.6113 126.03C41.1164 123.39 39.0349 122.325 36.5413 123.662Z" fill="white"/>
<path d="M2.18604 113.216L24.3089 125.067V135.299L2.18604 123.448V113.216Z" fill="#0FB347"/>
<path d="M2.14062 115.435L4.04899 116.556C4.64065 116.874 5.12474 117.756 5.12474 118.488V121.36C5.12474 122.094 4.64065 122.432 4.04899 122.116L2.14062 120.993V115.435Z" fill="#F9B061"/>
<path d="M22.4098 126.309L24.3074 127.326V132.862L22.4098 131.845C21.8171 131.528 21.333 130.668 21.333 129.936V127.065C21.333 126.332 21.8171 125.993 22.4098 126.309Z" fill="#F9B061"/>
<path d="M21.8037 127.534C21.8037 128.228 22.2587 129.035 22.8203 129.335C23.3807 129.636 23.8357 129.317 23.8357 128.623C23.8357 127.928 23.3807 127.122 22.8203 126.821C22.2587 126.52 21.8037 126.839 21.8037 127.534Z" fill="white"/>
<path d="M22.2559 130.422C22.2559 130.962 22.6098 131.59 23.0466 131.824C23.4822 132.058 23.8361 131.809 23.8361 131.269C23.8361 130.729 23.4822 130.102 23.0466 129.869C22.6098 129.634 22.2559 129.882 22.2559 130.422Z" fill="white"/>
<path d="M2.55469 117.162C2.55469 117.855 3.00972 118.662 3.57126 118.963C4.13173 119.264 4.58676 118.944 4.58676 118.251C4.58676 117.556 4.13173 116.749 3.57126 116.448C3.00972 116.147 2.55469 116.467 2.55469 117.162Z" fill="white"/>
<path d="M3.00635 120.05C3.00635 120.59 3.36025 121.217 3.797 121.451C4.23267 121.684 4.5866 121.437 4.5866 120.897C4.5866 120.357 4.23267 119.729 3.797 119.495C3.36025 119.262 3.00635 119.51 3.00635 120.05Z" fill="white"/>
<path d="M28.5487 132.28C28.5487 132.28 28.5487 133.75 28.5487 134.265C28.5487 135.3 27.4074 135.902 27.4074 135.902L27.104 133.571L28.5487 132.28Z" fill="#A1A1A0"/>
<path d="M24.3843 135.465L24.3284 137.59L20.502 135.535L20.5342 133.408L24.3843 135.465Z" fill="#CCCCC9"/>
<path d="M0.761719 122.838L4.59355 124.886V126.992L0.761719 124.934V122.838Z" fill="#CCCCC9"/>
<path d="M20.5347 133.407L20.5024 135.534L4.59424 126.992V124.886L20.5347 133.407Z" fill="#333232"/>
<path d="M7.27197 126.756L17.3388 132.137L17.3076 133.403L7.27197 128.013V126.756Z" fill="white"/>
<path d="M24.3291 135.494V137.59L27.1562 136.075C27.495 135.894 27.9168 135.445 27.9168 135.08V133.571L24.3291 135.494Z" fill="#A1A1A0"/>
<path d="M28.5494 132.28L24.3292 134.546L2.18493 122.677L2.18601 122.102L0.761719 122.838L24.3281 135.493L27.2424 133.932C27.6813 133.698 28.1729 133.401 28.3826 132.973L28.5494 132.28Z" fill="#F0F0EF"/>
<path d="M18.2261 133.252C18.2261 133.658 18.4918 134.129 18.8188 134.303C19.1469 134.479 19.4115 134.292 19.4115 133.888C19.4115 133.483 19.1469 133.013 18.8188 132.837C18.4918 132.661 18.2261 132.848 18.2261 133.252Z" fill="white"/>
<path d="M5.24707 126.299C5.24707 126.704 5.5117 127.174 5.83872 127.35C6.16682 127.526 6.4325 127.339 6.4325 126.935C6.4325 126.529 6.16682 126.058 5.83872 125.883C5.5117 125.709 5.24707 125.895 5.24707 126.299Z" fill="white"/>
<path d="M29.9088 107.41L45.774 98.9077L23.6479 87.0521L7.78271 95.5528L29.9088 107.41Z" fill="#EF3070"/>
<path d="M23.9586 84.1888C23.2422 84.4903 22.1223 84.9663 21.224 85.3695C18.085 86.7822 12.8203 89.2913 11.0367 90.9954C8.79269 93.1415 7.87185 95.2767 7.75244 95.5672L29.8505 107.447C29.8505 107.447 30.7348 105.146 33.1498 102.838C34.9323 101.132 40.3724 98.7856 43.5114 97.3741C44.954 96.7253 45.7737 96.1462 45.7737 96.1462L23.9586 84.1888Z" fill="#007E14"/>
<path d="M9.99609 92.09C11.6151 90.2033 12.7403 89.7221 12.7403 89.7221C12.0357 90.1732 11.4451 90.6056 11.0374 90.9948C10.6523 91.3633 10.3059 91.7318 9.99609 92.09Z" fill="#F89AC7"/>
<path d="M32.6663 105.091L31.6152 104.532C32.038 103.992 32.5468 103.415 33.1503 102.838C33.5946 102.413 34.2659 101.948 35.0727 101.468L36.0323 101.972L32.6663 105.091Z" fill="#F0367D"/>
<path d="M31.614 104.532L9.46533 92.7361C9.64713 92.5046 9.82355 92.289 9.99459 92.0904C10.3044 91.7322 10.6508 91.3636 11.0359 90.9952C11.4436 90.606 12.0342 90.1736 12.7388 89.7225L35.0714 101.467C34.2646 101.948 33.5933 102.413 33.1491 102.838C32.5456 103.415 32.0367 103.992 31.614 104.532Z" fill="#1ED15B"/>
<path d="M42.6416 97.5276C39.5015 98.9392 34.9339 101.132 33.1514 102.838C30.7363 105.146 29.8521 107.447 29.8521 107.447L45.7753 99.2675V96.1461C45.0513 96.4737 43.5248 97.1482 42.6416 97.5276Z" fill="#0A5524"/>
<path d="M29.0439 131.156L30.4823 130.386V128.606L29.0439 129.376V131.156Z" fill="white"/>
<path d="M28.6558 129.169L29.0431 129.376V131.156L28.6558 130.948V129.169Z" fill="#BAB9B8"/>
<path d="M28.6558 129.169L30.0941 128.402L30.4813 128.61L29.043 129.376L28.6558 129.169Z" fill="#CFCECD"/>
<path d="M42.9341 124.406L44.3724 123.634V121.856L42.9341 122.627V124.406Z" fill="white"/>
<path d="M42.5469 122.42L42.933 122.627V124.406L42.5469 124.199V122.42Z" fill="#BAB9B8"/>
<path d="M42.5469 122.42L43.9841 121.652L44.3713 121.86L42.9331 122.627L42.5469 122.42Z" fill="#CFCECD"/>
<path d="M27.6423 114.112C27.6423 113.444 28.0844 112.658 28.6255 112.369L32.8306 110.116C32.9909 110.03 33.1394 110.002 33.2738 110.016C33.134 109.631 32.7768 109.492 32.3562 109.717L28.1511 111.97C27.61 112.26 27.1679 113.044 27.1679 113.713L26.6763 120.905C26.6763 121.377 26.8979 121.664 27.2163 121.695C27.1754 121.583 27.1507 121.454 27.1507 121.305L27.6423 114.112Z" fill="#333232"/>
<path d="M27.6597 121.595L32.3565 119.028C32.8976 118.738 33.3408 117.954 33.3408 117.284V110.408C33.3408 110.256 33.3149 110.127 33.2741 110.016C33.1396 110.002 32.9912 110.03 32.8309 110.116L28.6257 112.369C28.0846 112.658 27.6425 113.444 27.6425 114.112L27.1509 121.305C27.1509 121.455 27.1756 121.583 27.2165 121.695C27.351 121.708 27.4994 121.68 27.6597 121.595Z" fill="#434244"/>
<path d="M24.3089 126.453L2.18604 114.602V113.216L24.3089 125.067V126.453Z" fill="#333232"/>
<path d="M20.7544 124.387L14.4043 120.987L5.70361 116.325C5.70361 116.325 5.76816 116.697 5.86175 117.245L20.5963 125.138C20.6899 124.692 20.7544 124.387 20.7544 124.387Z" fill="#333232"/>
<path d="M5.99316 118.008C6.07385 118.481 6.16204 119.001 6.24595 119.499L20.2135 126.982C20.2974 126.574 20.3857 126.148 20.4663 125.762L5.99316 118.008Z" fill="#333232"/>
<path d="M6.5429 121.292L6.56551 121.402L19.893 128.542L19.9156 128.456C19.9564 128.246 20.0167 127.946 20.0855 127.606L6.37402 120.261C6.44287 120.675 6.50309 121.038 6.5429 121.292Z" fill="#333232"/>
<path d="M8.54975 124.003C9.39637 124.538 11.777 125.784 13.2293 126.535C14.6805 127.34 17.0622 128.644 17.9088 129.017C18.7995 129.409 19.3363 129.463 19.644 129.101L6.81348 122.227C7.12114 122.919 7.65903 123.44 8.54975 124.003Z" fill="#333232"/>
<path d="M6.37413 120.261L20.0856 127.606C20.1254 127.409 20.1685 127.198 20.2136 126.982L6.24609 119.499C6.2902 119.765 6.33325 120.019 6.37413 120.261Z" fill="#434244"/>
<path d="M20.5964 125.138L5.86182 117.245C5.90162 117.474 5.94572 117.732 5.99305 118.008L20.4662 125.762C20.5135 125.537 20.5576 125.326 20.5964 125.138Z" fill="#434244"/>
<path d="M6.81391 122.227L19.6444 129.102C19.7552 128.971 19.8369 128.786 19.8929 128.542L6.56543 121.402C6.62137 121.706 6.70311 121.978 6.81391 122.227Z" fill="#434244"/>
<path d="M12.0542 120.758C12.0542 121.451 12.5093 122.259 13.0708 122.559C13.6323 122.86 14.0863 122.54 14.0863 121.846C14.0863 121.152 13.6323 120.346 13.0708 120.045C12.5093 119.744 12.0542 120.063 12.0542 120.758Z" fill="white"/>
<path d="M3.25195 109.884C3.25195 110.554 3.69408 111.338 4.23518 111.628L22.5455 121.196C23.0866 121.486 23.5288 121.175 23.5288 120.506L24.2269 114.791L3.97701 103.943L3.25195 109.884Z" fill="#434244"/>
<path d="M23.4363 111.472L5.12487 101.905C4.58377 101.615 4.14164 101.925 4.14164 102.595L3.97705 103.943L24.227 114.791L24.4195 113.216C24.4195 112.547 23.9774 111.762 23.4363 111.472Z" fill="#333232"/>
<path d="M108.901 85.9635L110.339 85.1929V83.4141L108.901 84.1838V85.9635Z" fill="white"/>
<path d="M108.514 83.9771L108.901 84.1838V85.9635L108.514 85.7559V83.9771Z" fill="#BAB9B8"/>
<path d="M108.514 83.9768L109.952 83.2091L110.339 83.4169L108.901 84.1834L108.514 83.9768Z" fill="#CFCECD"/>
<path d="M61.7739 111.317L63.2111 110.545V108.766L61.7739 109.536V111.317Z" fill="white"/>
<path d="M61.3872 109.33L61.7745 109.536V111.317L61.3872 111.109V109.33Z" fill="#BAB9B8"/>
<path d="M61.3872 109.329L62.8255 108.562L63.2117 108.77L61.7745 109.536L61.3872 109.329Z" fill="#CFCECD"/>
<path d="M40.3806 80.6091L100.548 48.112L99.3094 47.6668L39.1411 80.0122L40.3806 80.6091Z" fill="#CCCCC9"/>
<defs>
<filter id="filter0_f" x="14.0884" y="80.1915" width="123.164" height="68.3697" filterUnits="userSpaceOnUse" color-interpolation-filters="sRGB">
<feFlood flood-opacity="0" result="BackgroundImageFix"/>
<feBlend mode="normal" in="SourceGraphic" in2="BackgroundImageFix" result="shape"/>
<feGaussianBlur stdDeviation="5" result="effect1_foregroundBlur"/>
</filter>
<filter id="filter1_f" x="58.7744" y="8.59348" width="123.164" height="68.3697" filterUnits="userSpaceOnUse" color-interpolation-filters="sRGB">
<feFlood flood-opacity="0" result="BackgroundImageFix"/>
<feBlend mode="normal" in="SourceGraphic" in2="BackgroundImageFix" result="shape"/>
<feGaussianBlur stdDeviation="5" result="effect1_foregroundBlur"/>
</filter>
<radialGradient id="paint0_radial" cx="0" cy="0" r="1" gradientUnits="userSpaceOnUse" gradientTransform="translate(56.6827 5.68537) rotate(90) scale(5.68537 56.6827)">
<stop stop-color="#141414"/>
<stop offset="1" stop-color="#121212" stop-opacity="0"/>
</radialGradient>
<radialGradient id="paint1_radial" cx="0" cy="0" r="1" gradientUnits="userSpaceOnUse" gradientTransform="translate(56.6827 5.68537) rotate(90) scale(5.68537 56.6827)">
<stop stop-color="#141414"/>
<stop offset="1" stop-color="#121212" stop-opacity="0"/>
</radialGradient>
</defs>
</svg>
