<svg width="182" height="112" viewBox="0 0 182 112" fill="none" xmlns="http://www.w3.org/2000/svg">
<g filter="url(#filter0_f)">
<ellipse cx="106.448" cy="60.6368" rx="72.9222" ry="6.45519" transform="rotate(-26.9084 106.448 60.6368)" fill="url(#paint0_radial)" fill-opacity="0.25"/>
</g>
<path d="M60.4872 54.3314L42.3269 43.576L111.145 2.72676L141.766 20.8521L72.8234 61.6366L60.4872 54.3314ZM111.284 0.781494L38.5 43.8876L72.8198 64.2157L145.565 21.1478L111.284 0.781494Z" fill="#F9AC69"/>
<path d="M111.145 24.3279V2.72668L42.3271 43.5759L60.4874 54.3312L111.147 24.3279H111.145Z" fill="#F9B061"/>
<path d="M123.508 31.6542L111.147 24.328L60.4873 54.3313L72.8235 61.6365L123.508 31.6542Z" fill="#C5571E"/>
<path d="M111.146 2.72693V24.3283L123.509 31.6545L141.766 20.8523L111.146 2.72693Z" fill="#F79931"/>
<path d="M77.2173 12.9968V22.196C77.2173 25.2121 82.0131 27.6562 87.9273 27.6562C93.8433 27.6562 98.6391 25.2121 98.6391 22.196V12.9968H77.2173Z" fill="#574F91"/>
<path d="M77.2173 32.0365V42.0549C77.2173 45.0695 82.0131 47.5151 87.9273 47.5151C93.8433 47.5151 98.6391 45.0695 98.6391 42.0549V32.0365H77.2173Z" fill="#574F91"/>
<path d="M98.6391 12.9969C98.6391 16.0114 93.8433 18.457 87.9273 18.457C82.0131 18.457 77.2173 16.0114 77.2173 12.9969C77.2173 9.98086 82.0131 7.53723 87.9273 7.53723C93.8433 7.53723 98.6391 9.98086 98.6391 12.9969Z" fill="#776CB2"/>
<path d="M87.9273 27.6564C82.0131 27.6564 77.2173 25.2122 77.2173 22.1962V32.1195H77.2245C77.3109 35.0966 82.0654 37.4983 87.9273 37.4983C93.7911 37.4983 98.5472 35.0966 98.6319 32.1195H98.6391V22.1962C98.6391 25.2122 93.8433 27.6564 87.9273 27.6564Z" fill="#776CB2"/>
<path d="M97.2309 12.9966C97.2309 15.4623 93.0673 17.4631 87.9275 17.4631C82.7913 17.4631 78.624 15.4623 78.624 12.9966C78.624 10.5284 82.7913 8.52978 87.9275 8.52978C93.0673 8.52978 97.2309 10.5284 97.2309 12.9966Z" fill="#8D95D3"/>
<path d="M93.9913 11.2492C93.9913 11.6032 93.5194 11.8879 92.9341 11.8879C92.3488 11.8879 91.877 11.6032 91.877 11.2492C91.877 10.898 92.3488 10.6127 92.9341 10.6127C93.5194 10.6127 93.9913 10.898 93.9913 11.2492Z" fill="#574F91"/>
<path d="M95.8262 23.319V32.5183C95.8262 35.532 100.622 37.9777 106.536 37.9777C112.452 37.9777 117.248 35.532 117.248 32.5183V23.319H95.8262Z" fill="#EF3075"/>
<path d="M95.8262 42.3577V52.3767C95.8262 55.3905 100.622 57.8362 106.536 57.8362C112.452 57.8362 117.248 55.3905 117.248 52.3767V42.3577H95.8262Z" fill="#EF3075"/>
<path d="M117.248 23.3187C117.248 26.3327 112.452 28.7783 106.536 28.7783C100.622 28.7783 95.8262 26.3327 95.8262 23.3187C95.8262 20.3042 100.622 17.8585 106.536 17.8585C112.452 17.8585 117.248 20.3042 117.248 23.3187Z" fill="#D22869"/>
<path d="M106.536 37.9775C100.622 37.9775 95.8262 35.5319 95.8262 32.5181V42.3873H95.8298C95.8568 45.3903 100.64 47.8214 106.536 47.8214C112.436 47.8214 117.217 45.3903 117.244 42.3873H117.248V32.5181C117.248 35.5319 112.452 37.9775 106.536 37.9775Z" fill="#D4D4D2"/>
<path d="M115.84 23.3185C115.84 25.7844 111.677 27.7853 106.537 27.7853C101.401 27.7853 97.2334 25.7844 97.2334 23.3185C97.2334 20.8504 101.401 18.8496 106.537 18.8496C111.677 18.8496 115.84 20.8504 115.84 23.3185Z" fill="#EF3075"/>
<path d="M112.6 21.5723C112.6 21.9228 112.128 22.2112 111.542 22.2112C110.959 22.2112 110.485 21.9228 110.485 21.5723C110.485 21.2197 110.959 20.9321 111.542 20.9321C112.128 20.9321 112.6 21.2197 112.6 21.5723Z" fill="#464648"/>
<path d="M58.3223 23.1876V32.387C58.3223 35.403 63.1163 37.8464 69.0323 37.8464C74.9483 37.8464 79.7422 35.403 79.7422 32.387V23.1876H58.3223Z" fill="#574F91"/>
<path d="M58.3223 42.2264V52.2455C58.3223 55.2615 63.1163 57.705 69.0323 57.705C74.9483 57.705 79.7422 55.2615 79.7422 52.2455V42.2264H58.3223Z" fill="#574F91"/>
<path d="M79.7422 23.1875C79.7422 26.2035 74.9483 28.6492 69.0323 28.6492C63.1163 28.6492 58.3223 26.2035 58.3223 23.1875C58.3223 20.173 63.1163 17.7273 69.0323 17.7273C74.9483 17.7273 79.7422 20.173 79.7422 23.1875Z" fill="#776CB2"/>
<path d="M69.0323 37.8462C63.1163 37.8462 58.3223 35.4027 58.3223 32.3867V42.3093H58.3295C58.4123 45.2886 63.1703 47.6881 69.0323 47.6881C74.8943 47.6881 79.6504 45.2886 79.735 42.3093H79.7422V32.3867C79.7422 35.4027 74.9483 37.8462 69.0323 37.8462Z" fill="#776CB2"/>
<path d="M78.3364 23.1874C78.3364 25.6556 74.171 27.6562 69.033 27.6562C63.895 27.6562 59.7295 25.6556 59.7295 23.1874C59.7295 20.7217 63.895 18.7208 69.033 18.7208C74.171 18.7208 78.3364 20.7217 78.3364 23.1874Z" fill="#8D95D3"/>
<path d="M75.0956 21.4434C75.0956 21.794 74.6219 22.0801 74.0366 22.0801C73.4531 22.0801 72.9795 21.794 72.9795 21.4434C72.9795 21.0886 73.4531 20.8025 74.0366 20.8025C74.6219 20.8025 75.0956 21.0886 75.0956 21.4434Z" fill="#574F91"/>
<path d="M77.2173 34.1085V43.3064C77.2173 46.3224 82.0131 48.766 87.9273 48.766C93.8433 48.766 98.6391 46.3224 98.6391 43.3064V34.1085H77.2173Z" fill="#EF3075"/>
<path d="M77.2173 53.1462V63.1653C77.2173 66.1813 82.0131 68.627 87.9273 68.627C93.8433 68.627 98.6391 66.1813 98.6391 63.1653V53.1462H77.2173Z" fill="#EF3075"/>
<path d="M98.6391 34.1085C98.6391 37.1231 93.8433 39.5687 87.9273 39.5687C82.0131 39.5687 77.2173 37.1231 77.2173 34.1085C77.2173 31.0927 82.0131 28.649 87.9273 28.649C93.8433 28.649 98.6391 31.0927 98.6391 34.1085Z" fill="#D22869"/>
<path d="M87.9273 48.7661C82.0131 48.7661 77.2173 46.3225 77.2173 43.3065V53.1779H77.2191C77.2479 56.1808 82.0311 58.6078 87.9273 58.6078C93.8253 58.6078 98.6067 56.1808 98.6355 53.1779H98.6391V43.3065C98.6391 46.3225 93.8433 48.7661 87.9273 48.7661Z" fill="#D4D4D2"/>
<path d="M97.2309 34.1086C97.2309 36.5753 93.0673 38.5762 87.9275 38.5762C82.7913 38.5762 78.624 36.5753 78.624 34.1086C78.624 31.6413 82.7913 29.6405 87.9275 29.6405C93.0673 29.6405 97.2309 31.6413 97.2309 34.1086Z" fill="#EF3075"/>
<path d="M93.9913 32.3631C93.9913 32.7137 93.5194 33 92.9341 33C92.3488 33 91.877 32.7137 91.877 32.3631C91.877 32.0085 92.3488 31.7222 92.9341 31.7222C93.5194 31.7222 93.9913 32.0085 93.9913 32.3631Z" fill="#464648"/>
<path d="M72.8198 86.0565L145.566 42.9849V21.124L72.8198 64.1934V86.0565Z" fill="#F79931"/>
<path d="M74.6387 65.89V82.7415L143.61 41.9058V25.0536L74.6387 65.89Z" fill="#F9B061"/>
<path d="M111.284 0.781494L98.5583 8.31817C98.8735 8.76669 99.1418 9.23534 99.3381 9.73352L111.145 2.72676L141.766 20.8521L72.8234 61.6366L60.4872 54.3314L42.3269 43.576L57.0781 34.8195C56.7449 34.3602 56.5486 33.7934 56.5144 33.2188L38.5 43.8876L72.8198 64.2157L145.565 21.1478L111.284 0.781494Z" fill="#F9AC69"/>
<path d="M77.1895 67.5549V69.2917L140.801 31.6168L140.805 29.8799L77.1895 67.5549Z" fill="#F79931"/>
<path d="M77.1895 72.0357V73.769L140.801 36.0972L140.805 34.3618L77.1895 72.0357Z" fill="#F79931"/>
<path d="M52.106 61.6625L72.82 49.5856L38.5632 29.2784L18.0005 41.462L52.106 61.6625Z" fill="#F03E89"/>
<path d="M72.8201 49.5857V86.0565L37.1353 107.183V93.0077L52.1061 61.6626L72.8201 49.5857Z" fill="#D22869"/>
<path d="M3.11572 73.3301V86.913L37.1348 107.017V93.4785L3.11572 73.3301Z" fill="#EF3075"/>
<path d="M52.1057 61.6628L37.1348 93.4786L3.11572 73.3302L18.0002 41.4623L52.1057 61.6628Z" fill="#F469A0"/>
<path d="M19.2031 46.494L7.16406 72.3868L35.5409 89.2347L47.607 63.3144L19.2031 46.494Z" fill="white"/>
<path d="M55.8966 64.2099L69.9275 55.9004V54.4714L54.4037 63.6671L49.082 75.7981V88.4834L50.575 87.6017V76.3402L55.8966 64.2099Z" fill="#A1A1A0"/>
<path d="M62.6917 75.0432L69.9277 70.759V55.9005L55.8968 64.21L50.5752 76.3402V87.6017L60.7486 81.5913L62.6917 75.0432Z" fill="#D4D4D2"/>
<path d="M0.171387 85.6581L36.0256 106.775L35.9247 111.096L0.171387 89.922V85.6581Z" fill="#343434"/>
<path d="M35.9243 106.832V111.096L42.5301 107.187V102.923L35.9243 106.832Z" fill="#464648"/>
<path d="M40.9024 101.956L35.9266 104.906L1.80117 84.6958L0.171387 85.6576L35.9247 106.832L42.5305 102.923L40.9024 101.956Z" fill="#686A6C"/>
<path d="M11.2632 87.2467V88.8322L27.6118 98.5392V96.9371L11.2632 87.2467Z" fill="#343434"/>
<path d="M11.2632 84.2806V85.8647L27.6118 95.5715V93.9695L11.2632 84.2806Z" fill="#343434"/>
<path d="M11.2632 81.311V82.8965L27.6118 92.6019V91.0013L11.2632 81.311Z" fill="#343434"/>
<path d="M10.096 81.6006L3.11572 77.483V82.8393L10.096 86.9591V81.6006Z" fill="white"/>
<path d="M29.521 93.0928V98.4765L37.1353 102.988L37.137 97.6315L29.521 93.0928Z" fill="white"/>
<path d="M7.16406 72.3868L11.0288 64.0823L39.4182 80.9069L35.5409 89.2347L7.16406 72.3868Z" fill="#686A6C"/>
<path d="M53.8957 89.8275L54.4738 88.0942L42.5303 95.1896V87.2469L41.6064 89.0949V97.1017L53.8957 89.8275Z" fill="#F03E89"/>
<path d="M40.6431 91.0235L39.4185 93.4786V100.677L52.9469 92.6682L53.5341 90.9111L40.6431 98.5415V91.0235Z" fill="#F03E89"/>
<path d="M3.40088 80.4232C3.40088 81.5141 4.04742 82.7788 4.84343 83.2511C5.64304 83.7218 6.28778 83.2214 6.28778 82.132C6.28778 81.0419 5.64304 79.7751 4.84343 79.3028C4.04742 78.8305 3.40088 79.3323 3.40088 80.4232Z" fill="#F9B061"/>
<path d="M6.71973 82.3096C6.71973 83.399 7.36806 84.6667 8.16406 85.1374C8.96187 85.6082 9.6084 85.1078 9.6084 84.0192C9.6084 82.9283 8.96187 81.6636 8.16406 81.1912C7.36806 80.7191 6.71973 81.2187 6.71973 82.3096Z" fill="#F9B061"/>
<path d="M30.2246 96.1895C30.2246 97.279 30.8711 98.5451 31.6689 99.0159C32.4649 99.4882 33.1132 98.9863 33.1132 97.899C33.1132 96.8081 32.4649 95.5421 31.6689 95.0698C30.8711 94.5968 30.2246 95.0986 30.2246 96.1895Z" fill="#F9B061"/>
<path d="M33.5459 98.0743C33.5459 99.1652 34.1906 100.431 34.9902 100.902C35.7862 101.374 36.4328 100.875 36.4328 99.7838C36.4328 98.6944 35.7862 97.4304 34.9902 96.9575C34.1906 96.4852 33.5459 96.9856 33.5459 98.0743Z" fill="#F9B061"/>
<path d="M60.957 85.5378C57.2454 87.0678 54.0038 92.5555 53.314 97.6127C52.3757 98.1534 50.2561 99.3683 49.7158 99.7282C50.103 101.681 51.0196 102.934 52.2875 103.505L57.2868 106.386L60.6797 98.6776L60.6869 98.6632C61.6918 97.0719 62.5004 95.2579 63.0083 93.3861L66.1238 86.3057C64.8235 85.0518 63.001 84.6943 60.957 85.5378Z" fill="#2C2A2A"/>
<path d="M68.9207 92.1628C68.9207 97.491 65.7619 103.678 61.8629 105.985C57.964 108.291 54.8052 105.843 54.8052 100.519C54.8052 95.1896 57.964 89.0005 61.8629 86.6932C65.7619 84.386 68.9207 86.8354 68.9207 92.1628Z" fill="#434244"/>
<path d="M66.4411 93.8029C66.4411 97.2565 64.3917 101.268 61.8632 102.763C59.3366 104.26 57.2871 102.672 57.2871 99.217C57.2871 95.7633 59.3366 91.7509 61.8632 90.2578C64.3917 88.7601 66.4411 90.3501 66.4411 93.8029Z" fill="#929292"/>
<path d="M65.1479 94.5672C65.1479 97.046 63.6766 99.9235 61.8631 100.996C60.0514 102.069 58.5801 100.93 58.5801 98.4527C58.5801 95.9753 60.0514 93.0964 61.8631 92.0243C63.6766 90.9514 65.1479 92.0885 65.1479 94.5672Z" fill="white"/>
<path d="M63.4496 95.5717C63.4496 96.7679 62.74 98.1616 61.863 98.6778C60.9859 99.1984 60.2764 98.6482 60.2764 97.4485C60.2764 96.2509 60.9859 94.8594 61.863 94.3424C62.74 93.824 63.4496 94.372 63.4496 95.5717Z" fill="#333232"/>
<path d="M62.168 92.9726C62.168 93.2033 62.0329 93.4693 61.8636 93.5688C61.6961 93.6683 61.561 93.5638 61.561 93.3331C61.561 93.1038 61.6961 92.8363 61.8636 92.7383C62.0329 92.6366 62.168 92.7441 62.168 92.9726Z" fill="#333232"/>
<path d="M64.2259 92.9726C64.2259 93.2033 64.0908 93.4693 63.9215 93.5688C63.754 93.6683 63.6172 93.5638 63.6172 93.3331C63.6172 93.1038 63.754 92.8363 63.9215 92.7383C64.0908 92.6366 64.2259 92.7441 64.2259 92.9726Z" fill="#333232"/>
<path d="M60.2767 95.3054C60.2767 95.5361 60.1398 95.8036 59.9723 95.9039C59.8048 96.0012 59.668 95.8981 59.668 95.6674C59.668 95.4388 59.8048 95.1706 59.9723 95.0711C60.1398 94.9716 60.2767 95.0769 60.2767 95.3054Z" fill="#333232"/>
<path d="M64.2259 97.3547C64.2259 97.5833 64.0908 97.8493 63.9215 97.9487C63.754 98.0482 63.6172 97.943 63.6172 97.7123C63.6172 97.4838 63.754 97.2163 63.9215 97.1183C64.0908 97.0188 64.2259 97.1241 64.2259 97.3547Z" fill="#333232"/>
<path d="M60.2767 99.6878C60.2767 99.9164 60.1398 100.184 59.9723 100.284C59.8048 100.381 59.668 100.278 59.668 100.048C59.668 99.8183 59.8048 99.5508 59.9723 99.4513C60.1398 99.3532 60.2767 99.4571 60.2767 99.6878Z" fill="#333232"/>
<path d="M64.7172 94.9918C64.7172 95.2204 64.5804 95.4886 64.4147 95.5895C64.2454 95.6876 64.1104 95.5823 64.1104 95.3537C64.1104 95.123 64.2454 94.8555 64.4147 94.7553C64.5804 94.6579 64.7172 94.7632 64.7172 94.9918Z" fill="#333232"/>
<path d="M59.6688 97.9749C59.6688 98.2056 59.5337 98.4716 59.3644 98.5711C59.1969 98.6706 59.0601 98.5639 59.0601 98.3347C59.0601 98.1061 59.1969 97.8387 59.3644 97.7385C59.5337 97.639 59.6688 97.7464 59.6688 97.9749Z" fill="#333232"/>
<path d="M62.168 99.6878C62.168 99.9164 62.0329 100.184 61.8636 100.284C61.6961 100.381 61.561 100.278 61.561 100.048C61.561 99.8183 61.6961 99.5508 61.8636 99.4513C62.0329 99.3532 62.168 99.4571 62.168 99.6878Z" fill="#333232"/>
<path d="M130.863 44.045C127.15 45.5751 123.91 51.0626 123.222 56.1197C122.28 56.6613 120.162 57.8732 119.624 58.2339C120.011 60.1884 120.926 61.4415 122.194 62.0098L127.195 64.8931L130.588 57.1855L130.593 57.1688C131.598 55.5791 132.407 53.7628 132.916 51.8932L136.03 44.813C134.73 43.5577 132.907 43.2015 130.863 44.045Z" fill="#2C2A2A"/>
<path d="M138.829 50.6692C138.829 55.996 135.668 62.1853 131.771 64.4925C127.872 66.7975 124.711 64.3497 124.711 59.0214C124.711 53.6947 127.872 47.5068 131.771 45.1996C135.668 42.8924 138.829 45.3425 138.829 50.6692Z" fill="#434244"/>
<path d="M136.346 52.3082C136.346 55.7619 134.297 59.7727 131.77 61.2697C129.244 62.7642 127.194 61.1774 127.194 57.7237C127.194 54.2701 129.244 50.2577 131.77 48.7623C134.297 47.2676 136.346 48.8546 136.346 52.3082Z" fill="#929292"/>
<path d="M135.053 53.0726C135.053 55.5513 133.584 58.431 131.77 59.5031C129.957 60.5753 128.487 59.4368 128.487 56.9594C128.487 54.4807 129.957 51.6032 131.77 50.5288C133.584 49.4546 135.053 50.5952 135.053 53.0726Z" fill="white"/>
<path d="M133.357 54.0762C133.357 55.2745 132.645 56.6661 131.77 57.1853C130.893 57.7036 130.182 57.1535 130.182 55.956C130.182 54.7577 130.893 53.3659 131.77 52.8454C132.645 52.3284 133.357 52.8786 133.357 54.0762Z" fill="#333232"/>
<path d="M132.075 51.4778C132.075 51.7085 131.938 51.9759 131.771 52.0739C131.601 52.1735 131.466 52.0682 131.466 51.8375C131.466 51.609 131.601 51.3431 131.771 51.2414C131.938 51.1439 132.075 51.2493 132.075 51.4778Z" fill="#333232"/>
<path d="M134.132 51.4778C134.132 51.7085 133.997 51.9759 133.827 52.0739C133.662 52.1735 133.525 52.0682 133.525 51.8375C133.525 51.609 133.662 51.3431 133.827 51.2414C133.997 51.1439 134.132 51.2493 134.132 51.4778Z" fill="#333232"/>
<path d="M130.182 53.8123C130.182 54.043 130.047 54.3091 129.878 54.4086C129.71 54.5088 129.573 54.4036 129.573 54.1729C129.573 53.9435 129.71 53.6783 129.878 53.5766C130.047 53.4771 130.182 53.5838 130.182 53.8123Z" fill="#333232"/>
<path d="M134.132 55.8592C134.132 56.0885 133.997 56.3561 133.827 56.4541C133.662 56.5536 133.525 56.4504 133.525 56.2197C133.525 55.989 133.662 55.723 133.827 55.6235C133.997 55.5255 134.132 55.6285 134.132 55.8592Z" fill="#333232"/>
<path d="M130.182 58.1946C130.182 58.4232 130.047 58.6892 129.878 58.7887C129.71 58.8882 129.573 58.7837 129.573 58.5529C129.573 58.3237 129.71 58.0575 129.878 57.958C130.047 57.8585 130.182 57.9639 130.182 58.1946Z" fill="#333232"/>
<path d="M134.625 53.4986C134.625 53.7279 134.488 53.9933 134.319 54.095C134.152 54.1945 134.015 54.0879 134.015 53.8584C134.015 53.6277 134.152 53.3624 134.319 53.2629C134.488 53.1627 134.625 53.2679 134.625 53.4986Z" fill="#333232"/>
<path d="M129.574 56.4802C129.574 56.7087 129.439 56.9784 129.269 57.0757C129.1 57.1759 128.965 57.0685 128.965 56.84C128.965 56.6092 129.1 56.3431 129.269 56.2436C129.439 56.1441 129.574 56.2508 129.574 56.4802Z" fill="#333232"/>
<path d="M132.075 58.1946C132.075 58.4232 131.938 58.6892 131.771 58.7887C131.601 58.8882 131.466 58.7837 131.466 58.5529C131.466 58.3237 131.601 58.0575 131.771 57.958C131.938 57.8585 132.075 57.9639 132.075 58.1946Z" fill="#333232"/>
<defs>
<filter id="filter0_f" x="31.3545" y="17.131" width="150.188" height="87.0116" filterUnits="userSpaceOnUse" color-interpolation-filters="sRGB">
<feFlood flood-opacity="0" result="BackgroundImageFix"/>
<feBlend mode="normal" in="SourceGraphic" in2="BackgroundImageFix" result="shape"/>
<feGaussianBlur stdDeviation="5" result="effect1_foregroundBlur"/>
</filter>
<radialGradient id="paint0_radial" cx="0" cy="0" r="1" gradientUnits="userSpaceOnUse" gradientTransform="translate(106.448 60.6368) rotate(90) scale(6.45519 72.9222)">
<stop stop-color="#141414"/>
<stop offset="1" stop-color="#121212" stop-opacity="0"/>
</radialGradient>
</defs>
</svg>
