<svg width="203" height="132" viewBox="0 0 203 132" fill="none" xmlns="http://www.w3.org/2000/svg">
<g filter="url(#filter0_f)">
<ellipse rx="40.7344" ry="7.1413" transform="matrix(0.920352 -0.391092 0.518347 0.85517 154.802 92.7842)" fill="url(#paint0_radial)" fill-opacity="0.25"/>
</g>
<g filter="url(#filter1_f)">
<ellipse rx="40.7344" ry="7.1413" transform="matrix(0.920352 -0.391092 0.518347 0.85517 53.0052 104.039)" fill="url(#paint1_radial)" fill-opacity="0.25"/>
</g>
<path d="M58.7796 62.8257C55.9193 65.3313 52.2336 69.8705 50.9223 71.631L41.4688 76.3297V83.517L41.5084 83.6501L61.8409 73.3367C61.5241 72.6335 61.349 71.7748 61.349 70.7828C61.349 66.8043 64.1681 62.1801 67.6452 60.4574C68.5666 60.0013 69.4393 59.8052 70.2283 59.8222V56.3822C66.7161 57.6788 62.5628 59.5125 58.7796 62.8257Z" fill="#3C3C3D"/>
<path d="M59.7424 63.6571C56.8821 66.1613 53.536 70.5633 52.2247 72.3238L42.4316 77.161V84.3481L42.4712 84.4813L62.8037 74.168C62.4869 73.4648 62.3117 72.6061 62.3117 71.6141C62.3117 67.6343 65.1294 63.0127 68.6064 61.2901C69.5294 60.8326 70.4021 60.6379 71.191 60.6549V57.2148C67.6774 58.5114 63.5241 60.3451 59.7424 63.6571Z" fill="#535456"/>
<path d="M68.3139 58.3636L66.8838 57.6749V17.9132L69.7455 15.6155L68.3139 58.3636Z" fill="#2C2A2A"/>
<path d="M71.1762 58.2788L68.3145 59.6969V17.9132L71.1762 15.6155V58.2788Z" fill="#535456"/>
<path d="M69.6592 13.5164L53.9111 21.2368C49.0633 23.6391 44.8947 29.6343 43.9657 35.5394L40.915 76.4473L42.4365 77.468L43.8377 74.9638L46.5229 36.3732C47.3346 31.2079 50.9823 25.963 55.2239 23.8613L69.6592 16.7917V13.5164Z" fill="#3C3C3D"/>
<path d="M71.1758 14.5018L55.4277 22.221C50.5799 24.6233 46.4113 30.6185 45.4823 36.5235L42.4377 77.1609L42.4316 77.6837L45.3543 75.948L48.0395 37.3587C48.8512 32.1921 52.4989 26.9471 56.7405 24.8455L71.1758 17.7759V14.5018Z" fill="#535456"/>
<path d="M44.8407 84.0371C44.8407 87.2352 42.576 90.9508 39.7797 92.3365C36.985 93.7206 34.7188 92.2502 34.7188 89.0521C34.7188 85.8535 36.985 82.138 39.7797 80.7526C42.576 79.3685 44.8407 80.8389 44.8407 84.0371Z" fill="#2C2A2A"/>
<path d="M40.3027 94.3969L36.6367 92.6267L43.1782 80.5709L46.6842 82.2531L40.3027 94.3969Z" fill="#2C2A2A"/>
<path d="M48.6451 85.8568C48.6451 89.0549 46.3788 92.7706 43.584 94.1547C40.7878 95.5403 38.5215 94.07 38.5215 90.8714C38.5215 87.6718 40.7878 83.9576 43.584 82.5721C46.3788 81.1867 48.6451 82.657 48.6451 85.8568Z" fill="#434244"/>
<path d="M47.5433 86.5036C47.5433 89.0063 45.7705 91.9144 43.5835 92.9978C41.3949 94.0817 39.6221 92.9314 39.6221 90.4281C39.6221 87.9255 41.3949 85.0174 43.5835 83.934C45.7705 82.8504 47.5433 84.0018 47.5433 86.5036Z" fill="white"/>
<path d="M46.5716 86.9855C46.5716 88.873 45.2329 91.0673 43.5835 91.8842C41.9325 92.7026 40.5938 91.8347 40.5938 89.9472C40.5938 88.0577 41.9325 85.8643 43.5835 85.0474C45.2329 84.2291 46.5716 85.0969 46.5716 86.9855Z" fill="#2C2A2A"/>
<path d="M44.7213 87.902C44.7213 88.6208 44.2111 89.4571 43.5836 89.7686C42.9546 90.0794 42.4443 89.7486 42.4443 89.0287C42.4443 88.311 42.9546 87.4748 43.5836 87.1639C44.2111 86.8514 44.7213 87.1818 44.7213 87.902Z" fill="white"/>
<path d="M97.7065 71.959L71.1814 58.8328C67.9541 60.1019 64.3156 61.8728 60.9665 64.8058C58.1062 67.3113 54.4205 71.8505 53.1092 73.6124L45.5869 77.3504V84.6721L57.8412 78.4561L80.4719 90.3719L97.7065 71.959Z" fill="#F9B061"/>
<path d="M99.6814 53.9212L71.1777 39.7977V58.4722L99.6814 72.5852V53.9212Z" fill="#686A6C"/>
<path d="M83.2195 35.9996L55.2871 22.3231V23.4707L83.2195 37.3694V35.9996Z" fill="#2C2A2A"/>
<path d="M91.0766 32.0744L63.1426 18.3992V19.5467L91.0766 33.4454V32.0744Z" fill="#2C2A2A"/>
<path d="M91.4459 75.224L96.2755 72.8283L69.3026 59.4485L64.7822 61.9841L91.4459 75.224Z" fill="#FBC189"/>
<path d="M97.8189 54.9446L69.3154 40.8198V59.4942L97.8189 73.6085V54.9446Z" fill="#434244"/>
<path d="M99.2577 78.6341C99.2577 81.8336 96.993 85.5479 94.1967 86.9335C91.402 88.3192 89.1357 86.8488 89.1357 83.6492C89.1357 80.4508 91.402 76.735 94.1967 75.3509C96.993 73.9655 99.2577 75.4359 99.2577 78.6341Z" fill="#2C2A2A"/>
<path d="M94.7186 88.9921L91.0527 87.2236L97.5941 75.1678L101.1 76.85L94.7186 88.9921Z" fill="#2C2A2A"/>
<path d="M103.061 80.4518C103.061 83.65 100.795 87.3658 98.0001 88.7513C95.2038 90.137 92.9375 88.6666 92.9375 85.468C92.9375 82.2699 95.2038 78.554 98.0001 77.1686C100.795 75.7845 103.061 77.2536 103.061 80.4518Z" fill="#434244"/>
<path d="M101.959 81.1003C101.959 83.6032 100.187 86.5113 97.9995 87.5947C95.8109 88.6786 94.0381 87.5267 94.0381 85.0251C94.0381 82.5223 95.8109 79.6142 97.9995 78.5307C100.187 77.4472 101.959 78.5973 101.959 81.1003Z" fill="white"/>
<path d="M100.988 81.5814C100.988 83.4715 99.6489 85.6632 97.9995 86.4811C96.3485 87.2996 95.0098 86.4316 95.0098 84.5431C95.0098 82.6557 96.3485 80.4613 97.9995 79.6431C99.6489 78.8262 100.988 79.6941 100.988 81.5814Z" fill="#2C2A2A"/>
<path d="M99.1383 82.4973C99.1383 83.2175 98.6281 84.0539 98.0006 84.3653C97.3716 84.6762 96.8613 84.3453 96.8613 83.6265C96.8613 82.9077 97.3716 82.0713 98.0006 81.7602C98.6281 81.4491 99.1383 81.7798 99.1383 82.4973Z" fill="white"/>
<path d="M40.915 76.3062V83.6332L71.8311 98.941V91.6269L40.915 76.3062Z" fill="#3C3C3D"/>
<path d="M88.1712 77.2917C85.3109 79.7959 81.7897 84.4542 80.4783 86.2146L70.8604 90.7958V97.9828L70.9 98.1161L91.2325 87.8025C90.9157 87.0995 90.7405 86.2406 90.7405 85.2487C90.7405 81.2689 93.5597 76.6473 97.0368 74.9234C97.9582 74.4672 98.8309 74.2712 99.6199 74.2882V70.8468C96.1077 72.146 91.9529 73.9797 88.1712 77.2917Z" fill="#3C3C3D"/>
<path d="M89.134 78.123C86.2722 80.6285 82.9277 85.0292 81.6163 86.7896L71.8232 91.627V98.8155L71.8628 98.9473L92.1953 88.6352C91.8785 87.9322 91.7019 87.0719 91.7019 86.0799C91.7019 82.1015 94.521 77.4786 97.9981 75.7547C98.921 75.2999 99.7922 75.1038 100.581 75.1208V71.6794C97.069 72.9773 92.9157 74.811 89.134 78.123Z" fill="#535456"/>
<path d="M72.8239 73.8895C71.5308 73.6059 69.0925 72.8361 67.8542 72.2166C66.1408 71.3618 64.2706 70.1528 63.372 69.2052C62.8191 68.6223 62.0287 67.1009 63.8045 66.2226L69.6697 63.3171C71.3724 62.2768 74.1139 62.0742 75.6887 63.1028C76.9178 63.9027 79.3607 65.7129 80.5883 66.3193C81.7245 66.8827 84.0273 67.3689 85.1422 67.7871C86.5951 68.3295 86.484 69.8901 84.7096 70.7697L78.8444 73.6739C77.0701 74.5535 74.2845 74.2084 72.8239 73.8895Z" fill="#2C2A2A"/>
<path d="M67.8645 66.3285C67.8645 66.3285 63.4325 64.4165 63.1096 65.4254C62.6938 66.7206 62.7091 67.6146 62.7091 67.6146L67.8645 67.8746V66.3285Z" fill="#2C2A2A"/>
<path d="M85.675 66.4305C84.9531 65.5679 80.6475 67.4683 80.6475 67.4683V69.3099L86.1425 68.9374C86.1425 68.9374 86.4319 67.3337 85.675 66.4305Z" fill="#2C2A2A"/>
<path d="M72.878 71.5331C71.6276 71.2599 69.273 70.5123 68.0744 69.9176C66.9884 69.3791 64.6094 67.9218 63.7413 67.0069C63.2067 66.4423 62.4437 64.9732 64.1586 64.1236L69.8274 61.3136C71.4753 60.3098 74.1224 60.1138 75.6469 61.1071C76.8334 61.8821 79.1956 63.6309 80.3805 64.2177C81.4786 64.7615 83.7053 65.2307 84.7821 65.6345C86.1863 66.1599 86.0797 67.6682 84.3648 68.5178L78.696 71.3265C76.9811 72.1761 74.2884 71.8415 72.878 71.5331Z" fill="#343434"/>
<path d="M88.5218 63.6294V55.0241C88.5218 52.0115 86.3667 48.4787 83.7334 47.1743L81.2357 45.9366C78.6023 44.6322 76.4473 46.0294 76.4473 49.042V57.6473L88.5218 63.6294Z" fill="#2C2A2A"/>
<path d="M86.5271 64.6451L88.5207 63.6296L86.1631 61.6377L86.5271 64.6451Z" fill="#2C2A2A"/>
<path d="M86.5282 64.6451V56.0398C86.5282 53.0285 84.3731 49.4944 81.7413 48.19L79.242 46.9522C76.6087 45.6478 74.4551 47.045 74.4551 50.0577V58.663L86.5282 64.6451Z" fill="#343434"/>
<path d="M58.2708 63.4113C57.9464 63.4113 57.6479 63.478 57.3798 63.61C56.5589 64.0178 56.0868 65.0203 56.0868 66.3626C56.0868 69.102 58.018 72.2872 60.3893 73.4635C61.3184 73.9236 62.1545 73.9968 62.8064 73.6713C63.6288 73.2648 64.0994 72.2611 64.0994 70.9201C64.0994 68.1793 62.1697 64.9941 59.7969 63.8178C59.2501 63.5473 58.7353 63.4113 58.2708 63.4113ZM61.9215 74.8868C61.2468 74.8868 60.5249 74.7065 59.7969 74.3444C57.0509 72.9838 54.9004 69.4785 54.9004 66.3626C54.9004 64.6465 55.5888 63.3238 56.7874 62.7278C57.8124 62.2207 59.0917 62.2939 60.3893 62.9382C63.1353 64.2988 65.2858 67.8042 65.2858 70.9201C65.2858 72.6349 64.5989 73.9589 63.3988 74.5523C62.9495 74.7758 62.45 74.8868 61.9215 74.8868Z" fill="#2C2A2A"/>
<path d="M71.8296 91.6426L81.6166 86.7894L50.9215 71.631L41.1025 76.4473L71.8296 91.6426Z" fill="#2C2A2A"/>
<path d="M64.554 77.4L61.6511 78.8378L49.9756 73.0346L52.8617 71.5995L64.554 77.4Z" fill="#686A6C"/>
<path d="M49.9756 73.0347V81.1107L61.6573 86.8956V78.8247L49.9756 73.0347Z" fill="#3C3C3D"/>
<path d="M64.5551 77.4004L61.6582 78.8368V86.6017L64.5551 85.1666V77.4004Z" fill="#434244"/>
<path d="M48.5223 44.4989L43.8467 46.8149V94.0149L48.5223 91.7001V44.4989Z" fill="#535456"/>
<path d="M41.6533 45.7274V91.5484L43.8479 92.6348V46.8148L41.6533 45.7274Z" fill="#3C3C3D"/>
<path d="M53.6835 57.4369L45.75 53.5067V55.0425L53.6835 58.9713V57.4369Z" fill="#F9B061"/>
<path d="M57.5931 58.0422L47.0994 52.8468L45.75 53.5212L57.5931 59.3911V58.0422Z" fill="#FBC189"/>
<path d="M58.7235 49.7231L54.0479 52.0392V97.8588L58.7235 95.5455V49.7231Z" fill="#535456"/>
<path d="M51.8516 50.9517V96.7728L54.0478 97.8588V52.0391L51.8516 50.9517Z" fill="#3C3C3D"/>
<path d="M66.6129 94.6224C66.6129 97.821 64.3466 101.537 61.5503 102.921C58.7555 104.306 56.4893 102.836 56.4893 99.6375C56.4893 96.4379 58.7555 92.7237 61.5503 91.338C64.3466 89.954 66.6129 91.4244 66.6129 94.6224Z" fill="#2C2A2A"/>
<path d="M62.0726 104.98L58.4082 103.211L64.9481 91.1552L68.4557 92.8384L62.0726 104.98Z" fill="#2C2A2A"/>
<path d="M70.4175 96.4393C70.4175 99.6389 68.1513 103.353 65.3565 104.739C62.5617 106.125 60.2939 104.655 60.2939 101.455C60.2939 98.2573 62.5617 94.5415 65.3565 93.1573C68.1513 91.7718 70.4175 93.2411 70.4175 96.4393Z" fill="#434244"/>
<path d="M69.3158 97.0888C69.3158 99.5921 67.543 102.499 65.3559 103.582C63.1689 104.665 61.3945 103.514 61.3945 101.012C61.3945 98.5096 63.1689 95.6026 65.3559 94.5192C67.543 93.4358 69.3158 94.5846 69.3158 97.0888Z" fill="white"/>
<path d="M68.3444 97.5697C68.3444 99.4582 67.0072 101.652 65.3563 102.47C63.7054 103.288 62.3682 102.42 62.3682 100.53C62.3682 98.6429 63.7054 96.4486 65.3563 95.6301C67.0072 94.8133 68.3444 95.6812 68.3444 97.5697Z" fill="#2C2A2A"/>
<path d="M66.4938 98.4863C66.4938 99.2061 65.9851 100.041 65.356 100.354C64.727 100.665 64.2168 100.334 64.2168 99.614C64.2168 98.8952 64.727 98.0599 65.356 97.7474C65.9851 97.4366 66.4938 97.7674 66.4938 98.4863Z" fill="white"/>
<path d="M97.7065 72.8282L96.2764 72.1408V32.3792L99.1381 30.0815L97.7065 72.8282Z" fill="#2C2A2A"/>
<path d="M100.569 72.7459L97.707 74.1614V32.3791L100.569 30.0814V72.7459Z" fill="#535456"/>
<path d="M99.0499 27.9824L83.3017 35.7042C78.4539 38.1051 74.2838 44.1004 73.3548 50.0041L70.3057 90.9122L73.2284 89.4285L75.9135 50.8406C76.7253 45.674 80.3729 40.429 84.6146 38.3273L99.0499 31.2565V27.9824Z" fill="#3C3C3D"/>
<path d="M71.4418 92.0176L70.3057 90.9122L71.8302 88.7264L73.4552 90.5068L71.4418 92.0176Z" fill="#3C3C3D"/>
<path d="M100.567 28.9664L84.8193 36.6882C79.9715 39.0905 75.8014 45.0844 74.8739 50.9895L71.8293 91.6268L71.8232 92.1482L74.7459 90.4138L77.431 51.8246C78.2428 46.6593 81.8905 41.413 86.1321 39.3114L100.567 32.2418V28.9664Z" fill="#535456"/>
<path d="M40.6987 70.132L39.334 70.8077V91.891L40.6987 91.4258V70.132Z" fill="#F79931"/>
<path d="M57.9467 88.3487L56.5821 89.0262L39.3398 80.4861L40.6892 79.8116L57.9467 88.3487Z" fill="#FBC189"/>
<path d="M57.9467 97.2403L56.5821 97.9161L39.3398 89.3788L40.6892 88.7018L57.9467 97.2403Z" fill="#686A6C"/>
<path d="M56.5826 79.2469L37.752 69.9163V71.452L56.5826 80.7826V79.2469Z" fill="#F9B061"/>
<path d="M57.9467 83.4463L56.5821 84.1233L39.3398 75.5846L40.6892 74.9089L57.9467 83.4463Z" fill="#FBC189"/>
<path d="M57.9487 78.5712L56.584 79.2469V100.542L57.9487 99.8661V78.5712Z" fill="#F79931"/>
<path d="M57.9474 78.5714L56.5827 79.2471L37.752 69.9163L39.0999 69.2406L57.9474 78.5714Z" fill="#FBC189"/>
<path d="M56.5826 84.1234L37.752 74.7927V76.3285L56.5826 85.6576V84.1234Z" fill="#F9B061"/>
<path d="M56.5826 89.026L37.752 79.6951V81.2308L56.5826 90.5602V89.026Z" fill="#F9B061"/>
<path d="M39.3328 91.891L37.752 91.1553V70.1685L39.3328 70.9514V91.891Z" fill="#F9B061"/>
<path d="M56.5837 100.542L55.0029 99.7579V78.6429L56.5837 79.4272V100.542Z" fill="#F9B061"/>
<path d="M56.5826 97.8548L37.752 88.5959V90.9124L56.5826 100.172V97.8548Z" fill="#3C3C3D"/>
<path d="M57.948 98.9094L20.8759 117.227L16.2246 114.922L53.2967 96.6063L57.948 98.9094Z" fill="#686A6C"/>
<path d="M20.877 117.227V116.308L57.949 98.0023V98.9095L20.877 117.227Z" fill="#3C3C3D"/>
<path d="M57.948 99.9355L20.8759 118.252L16.2246 115.946L53.2967 97.6313L57.948 99.9355Z" fill="#686A6C"/>
<path d="M42.4452 91.1654L5.37303 109.48L0.72168 107.178L37.7939 88.8599L42.4452 91.1654Z" fill="#686A6C"/>
<path d="M5.37305 109.48V108.563L42.4453 90.2572V91.1654L5.37305 109.48Z" fill="#3C3C3D"/>
<path d="M42.4452 92.1891L5.37303 110.507L0.72168 108.201L37.7939 89.886L42.4452 92.1891Z" fill="#686A6C"/>
<path d="M84.8992 35.6687L55.7453 21.2458L54.3975 21.9216L83.568 36.3601L84.8992 35.6687Z" fill="#3C3C3D"/>
<path d="M92.7561 31.7451L63.6023 17.3209L62.2529 17.9979L91.4235 32.4365L92.7561 31.7451Z" fill="#3C3C3D"/>
<path d="M98.0014 28.7102L70.0674 15.0352V16.1827L98.0014 30.0813V28.7102Z" fill="#2C2A2A"/>
<path d="M99.6798 28.3811L69.6578 13.5165L68.3145 14.2066L98.3472 29.0712L99.6798 28.3811Z" fill="#3C3C3D"/>
<path d="M59.8963 21.6826C59.8963 22.5792 58.2697 23.3059 56.2623 23.3059C54.255 23.3059 52.6299 22.5792 52.6299 21.6826C52.6299 20.7873 54.255 20.0593 56.2623 20.0593C58.2697 20.0593 59.8963 20.7873 59.8963 21.6826Z" fill="#686A6C"/>
<path d="M59.2343 21.5493C59.2343 22.2812 57.9031 22.8759 56.2628 22.8759C54.6226 22.8759 53.293 22.2812 53.293 21.5493C53.293 20.816 54.6226 20.2227 56.2628 20.2227C57.9031 20.2227 59.2343 20.816 59.2343 21.5493Z" fill="#D22869"/>
<path d="M53.7879 15.9541L53.293 21.5494H59.2343L58.7377 15.9541H53.7879Z" fill="#D22869"/>
<path d="M58.738 15.954C58.738 16.5643 57.6292 17.0597 56.263 17.0597C54.8969 17.0597 53.7881 16.5643 53.7881 15.954C53.7881 15.3449 54.8969 14.8496 56.263 14.8496C57.6292 14.8496 58.738 15.3449 58.738 15.954Z" fill="#F03E89"/>
<path d="M57.9458 15.9696C57.9458 16.384 57.1935 16.7198 56.2644 16.7198C55.3354 16.7198 54.583 16.384 54.583 15.9696C54.583 15.5553 55.3354 15.2181 56.2644 15.2181C57.1935 15.2181 57.9458 15.5553 57.9458 15.9696Z" fill="#D22869"/>
<path d="M157.93 79.7444C157.93 79.7444 156.773 80.8252 155.225 82.1197C153.795 83.3159 153.351 83.6621 152.024 84.7742C151.248 85.4233 151.887 86.0227 153.365 85.9724C154.664 85.9296 157.606 85.3877 159.256 84.8782C160.424 84.5191 162.569 83.5021 163.663 82.9065C164.759 82.3123 164.972 81.4865 164.972 81.4865V79.4882L157.93 79.7444Z" fill="#464648"/>
<path d="M179.086 77.9721C179.086 77.9721 178.348 78.8993 176.8 80.1936C175.367 81.3918 174.947 81.8656 173.68 83.2951C173.389 83.6216 173.22 84.552 174.7 84.5049C175.999 84.4627 177.979 83.9877 179.628 83.4833C181.509 82.9081 183.098 81.2809 184.192 80.6866C185.287 80.0922 185.77 78.7787 185.77 78.7787L185.013 76.8097L179.086 77.9721Z" fill="#464648"/>
<path d="M178.498 45.561C179.044 38.2319 174.334 34.3795 174.334 34.3795C174.711 31.9097 161.36 35.3654 161.36 35.3654C161.36 35.3654 158.501 48.6447 157.291 55.6377C155.919 63.5839 156.751 79.7706 156.751 79.7706C156.751 79.7706 156.924 81.498 160.372 81.4864C163.02 81.4763 164.972 79.4881 164.972 79.4881L165.246 61.0685L168.312 48.0064C168.312 48.0064 171.264 58.6219 172.2 62.4299C173.197 66.4846 177.012 78.4762 177.012 78.4762C177.012 78.4762 179.482 80.912 182.55 79.5958C185.616 78.2785 185.013 76.8093 185.013 76.8093C185.013 76.8093 184.41 68.3051 180.469 60.6929C180.14 54.9127 178.245 48.9284 178.498 45.561Z" fill="#574F91"/>
<path d="M163.185 16.1215C163.185 16.1215 161.276 16.0415 159.305 19.2198C157.334 22.398 155.451 25.7803 155.451 25.7803C155.451 25.7803 158.32 26.1329 161.441 28.5994C165.711 25.2873 166.408 17.6706 163.185 16.1215Z" fill="#D22869"/>
<path d="M163.187 16.1216C163.187 16.1216 162.114 17.8879 161.127 21.1314C160.139 24.3732 160.495 39.4465 160.495 39.4465C160.495 39.4465 164.566 41.9179 171.381 41.4331C175.431 41.1458 177.499 38.9927 177.499 38.9927C177.499 38.9927 179.922 24.2296 179.593 22.1157C179.264 20.0001 174.109 15.0329 174.109 15.0329C174.109 15.0329 167.291 14.7358 163.187 16.1216Z" fill="#F03E7E"/>
<path d="M167.85 14.0614L167.059 18.0199C167.059 18.0199 169.408 20.2823 171.708 18.5912C174.007 16.9001 174.334 16.1215 174.334 16.1215L173.205 10.7233L167.85 14.0614Z" fill="#F89D8E"/>
<path d="M171.096 4.77988C169.133 3.49683 164.482 3.08547 162.783 7.20885C161.003 11.5347 165.564 16.9362 167.993 16.0188C169.355 15.5046 172.216 13.6796 173.023 11.4024C173.928 8.83796 172.621 5.77726 171.096 4.77988Z" fill="#FABAAC"/>
<path d="M162.38 8.58328C163.191 9.29173 164.372 10.0785 166.808 9.73408C168.802 9.45168 170.231 8.65346 170.231 8.65346C170.231 8.65346 171.758 9.53494 172.338 9.80428C172.994 10.1112 173.023 11.4023 173.023 11.4023C173.023 11.4023 174.318 9.99199 173.649 7.40798C173.23 5.79684 171.387 2.38033 167.851 2.66273C164.317 2.94349 162.262 4.94966 161.823 6.68485C161.604 7.55327 162.015 8.26334 162.38 8.58328Z" fill="#464648"/>
<path d="M168.048 25.0846C168.048 25.0846 171.046 21.211 173.416 20.1255C175.788 19.0416 177.591 18.7967 177.591 18.7967C177.591 18.7967 176.541 17.3081 175.963 17.1301C174.957 17.2607 173.969 17.4974 171.835 18.4474C169.701 19.3975 167.363 21.7007 166.431 23.1143C164.553 25.9611 166.671 26.7251 168.048 25.0846Z" fill="#574F91"/>
<path d="M162.93 16.1461C162.93 16.1461 161.283 19.4924 161.049 21.4137C160.813 23.335 161.26 23.9276 162.161 23.9945C163.061 24.063 163.111 22.6919 163.379 21.1607C163.628 19.7161 165.047 15.6335 165.047 15.6335L162.93 16.1461Z" fill="#574F91"/>
<path d="M177.891 36.5359C177.891 36.5359 174.92 38.3087 172.753 38.1046C170.855 37.9267 168.121 36.3417 168.266 31.185C168.41 26.03 168.968 23.6549 168.968 23.6549L161.709 20.9239C161.709 20.9239 159.736 24.84 159.345 32.5235C158.957 40.2055 158.791 42.8532 158.791 42.8532C158.791 42.8532 166.54 43.2613 171.125 42.8532C175.711 42.4467 178.245 41.4314 178.245 41.4314L177.891 36.5359Z" fill="#574F91"/>
<path d="M162.51 22.3361C162.51 22.6528 162.302 22.9091 162.047 22.9091C161.796 22.9091 161.589 22.6528 161.589 22.3361C161.589 22.0211 161.796 21.7632 162.047 21.7632C162.302 21.7632 162.51 22.0211 162.51 22.3361Z" fill="white"/>
<path d="M166.858 24.0778C166.641 24.3357 166.635 24.6459 166.84 24.7732C167.046 24.8989 167.388 24.7944 167.603 24.5382C167.82 24.2802 167.824 23.9701 167.618 23.8428C167.415 23.7171 167.072 23.8215 166.858 24.0778Z" fill="white"/>
<path d="M161.084 24.8252C160.786 26.1148 160.936 30.1714 163.614 30.7819C166.041 31.3353 166.671 28.8785 167.23 26.98C164.086 26.3695 161.084 24.8252 161.084 24.8252Z" fill="#776CB2"/>
<path d="M170.697 29.7747C170.697 29.7747 169.337 32.6836 168.185 34.0874C167.433 34.9999 162.967 37.5921 161.223 38.7789C162.265 39.329 162.718 40.1468 163.361 41.043C165.687 40.3982 170.089 38.1014 170.781 37.6803C172.539 36.6111 175.869 32.4518 175.869 32.4518C175.869 32.4518 174.334 29.1119 170.697 29.7747Z" fill="#FABAAC"/>
<path d="M178.714 20.2936C177.266 19.2946 174.172 22.6785 172.53 24.7941C170.887 26.908 169.57 30.0716 169.57 30.0716C169.57 30.0716 171.549 31.3056 173.321 32.2655C174.805 33.0686 176.376 33.6775 176.376 33.6775C176.376 33.6775 183.673 23.7233 178.714 20.2936Z" fill="#D22869"/>
<path d="M171.708 5.03781C174.565 6.0107 175.191 7.94668 173.102 9.3652C171.015 10.7821 167.009 11.1445 164.152 10.1716C161.295 9.19871 160.671 7.26273 162.758 5.84257C164.845 4.42568 168.851 4.06656 171.708 5.03781Z" fill="#F9B061"/>
<path d="M161.55 7.95312C161.55 7.95312 160.339 1.65546 166.69 0.853972C174.091 -0.0797379 174.327 7.3769 174.327 7.3769L161.55 7.95312Z" fill="#F9B061"/>
<path d="M161.457 7.02258C161.457 7.02258 158.37 9.5005 162.114 10.8864C168.455 13.237 173.648 8.91774 173.648 8.91774C173.648 8.91774 166.907 10.2987 163.485 9.00916C161.168 8.13749 161.457 7.02258 161.457 7.02258Z" fill="#F79931"/>
<path d="M167.649 1.22604C166.687 1.70759 166.253 2.28383 165.69 3.45752C165.127 4.62958 165.593 5.75103 166.953 6.43501C168.317 7.11898 169.255 8.28613 169.255 8.28613C169.255 8.28613 169.454 6.95737 168.275 6.1118C167.098 5.26785 165.998 4.83037 166.675 3.45752C167.508 1.76473 170.23 1.14115 170.23 1.14115C170.23 1.14115 169.302 0.396781 167.649 1.22604Z" fill="#F79931"/>
<path d="M166.691 0.853882C166.691 0.853882 164.871 1.46441 164.144 2.44875C163.794 2.92215 163.815 4.54314 163.486 4.94635C163.157 5.34792 161.458 6.51672 161.458 6.51672C161.458 6.51672 160.945 6.10535 161.582 5.3626C162.219 4.62312 162.993 4.55947 163.066 3.45759C163.111 2.71484 162.67 1.06936 166.691 0.853882Z" fill="#F79931"/>
<path d="M156.086 77.0868V48.7117H154.802V77.0868H156.086Z" fill="#464648"/>
<path d="M154.8 77.0868V48.7117H152.618V77.0868H154.8Z" fill="#343434"/>
<path d="M154.221 47.3355C154.384 47.6231 154.664 47.8432 154.987 47.9413C155.318 48.042 155.646 48.0064 155.9 47.8482L160.097 45.2332C160.412 45.0368 160.559 44.6925 160.488 44.3124C160.416 43.9304 160.144 43.5974 159.758 43.4211L152.033 39.8674C151.354 39.5556 150.921 39.9017 150.803 40.0127C150.687 40.1253 150.335 40.5432 150.692 41.1684L154.221 47.3355ZM155.003 49.4347L154.7 49.3582C153.911 49.1164 153.23 48.5795 152.83 47.8827L149.3 41.7153C148.729 40.7195 148.836 39.6144 149.572 38.8994C150.304 38.1861 151.482 38.0457 152.564 38.5452L160.291 42.0972C161.23 42.5298 161.894 43.3411 162.067 44.2683C162.24 45.1956 161.883 46.036 161.114 46.513L156.92 49.128C156.378 49.464 155.693 49.5719 155.003 49.4347Z" fill="#464648"/>
<path d="M155.443 49.8459L156.829 49.1804V48.8846L155.053 49.6127L155.443 49.8459Z" fill="#464648"/>
<path d="M149.148 38.9811L150.223 38.4653L150.455 38.6857L149.521 39.4839L149.148 38.9811Z" fill="#464648"/>
<path d="M153.122 47.8674C153.286 48.1518 153.565 48.3738 153.889 48.4732C154.22 48.5726 154.547 48.537 154.802 48.3789L158.998 45.7638C159.314 45.5674 159.46 45.2218 159.388 44.8431C159.317 44.4626 159.044 44.1296 158.659 43.9517L150.933 40.398C150.256 40.0862 149.822 40.4322 149.704 40.5433C149.588 40.6575 149.236 41.0738 149.592 41.699L153.122 47.8674ZM153.904 49.9654L153.6 49.8888C152.81 49.6471 152.127 49.1102 151.732 48.4146L148.201 42.2458C147.631 41.2501 147.737 40.1433 148.473 39.4316C149.206 38.7166 150.383 38.5762 151.465 39.0757L159.19 42.6294C160.132 43.0604 160.794 43.8717 160.967 44.8004C161.142 45.7262 160.784 46.5666 160.016 47.0449L155.819 49.6587C155.279 49.9946 154.594 50.1025 153.904 49.9654Z" fill="#343434"/>
<path d="M163.462 88.9823L126.721 107.258C124.766 108.233 121.773 108.344 120.077 107.507C118.378 106.667 118.589 105.187 120.546 104.212L157.302 85.9266L163.462 88.9823Z" fill="#464648"/>
<path d="M163.462 87.6064V88.9823L160.763 89.4312L160.223 87.2097L163.462 87.6064Z" fill="#464648"/>
<path d="M118.928 104.692V106.084L119.538 106.693L119.833 105.037L118.928 104.692Z" fill="#464648"/>
<path d="M163.462 87.6062L126.721 105.885C124.766 106.856 121.773 106.969 120.077 106.13C118.378 105.293 118.589 103.81 120.546 102.836L157.302 84.5519L163.462 87.6062Z" fill="#686A6C"/>
<path d="M125.946 103.597C126.049 104.136 125.253 104.694 124.171 104.844C123.091 104.994 122.134 104.678 122.031 104.139C121.93 103.6 122.724 103.042 123.806 102.894C124.886 102.743 125.845 103.058 125.946 103.597Z" fill="#F9B061"/>
<path d="M125.656 103.35C125.748 103.834 125.036 104.332 124.07 104.466C123.104 104.599 122.248 104.318 122.156 103.837C122.065 103.353 122.776 102.854 123.743 102.72C124.709 102.586 125.567 102.869 125.656 103.35Z" fill="#F79931"/>
<path d="M148.058 81.3528L111.317 99.6321C109.362 100.605 106.372 100.716 104.673 99.8783C102.976 99.0393 103.187 97.5572 105.143 96.5843L141.9 78.2985L148.058 81.3528Z" fill="#464648"/>
<path d="M148.059 79.978V81.3528L145.361 81.803L144.821 79.5802L148.059 79.978Z" fill="#464648"/>
<path d="M148.058 79.978L111.317 98.2562C109.362 99.2286 106.372 99.3414 104.673 98.5023C102.976 97.6631 103.187 96.1825 105.143 95.2101L141.9 76.9224L148.058 79.978Z" fill="#686A6C"/>
<path d="M110.542 95.9688C110.644 96.5077 109.849 97.0656 108.769 97.2161C107.688 97.3659 106.73 97.0496 106.629 96.5108C106.528 95.9721 107.321 95.4153 108.402 95.2654C109.484 95.1151 110.441 95.43 110.542 95.9688Z" fill="#F9B061"/>
<path d="M110.253 95.722C110.344 96.204 109.633 96.7033 108.667 96.8372C107.7 96.9712 106.842 96.6906 106.751 96.2073C106.66 95.7259 107.371 95.2259 108.337 95.0921C109.306 94.9582 110.162 95.2406 110.253 95.722Z" fill="#F79931"/>
<path d="M139.531 78.1009L144.135 67.6996L159.993 75.5611L161.085 88.7898L139.531 78.1009Z" fill="#F79931"/>
<path d="M161.084 88.7898L163.462 87.6063L162.317 74.412L159.992 75.561L161.084 88.7898Z" fill="#F9B061"/>
<path d="M144.135 67.7008L159.993 75.5609L162.318 74.4119L146.482 66.5537L144.135 67.7008Z" fill="#F79931"/>
<path d="M162.163 38.2482C161.823 38.4604 161.551 38.622 161.389 38.6987C160.423 39.1656 159.046 39.7337 157.891 39.6406C156.737 39.5459 156.314 39.9932 156.031 40.176C156.295 40.2985 156.83 40.5058 156.83 40.5058C156.83 40.5058 154.992 41.1555 155.053 42.45C155.082 43.1046 155.242 43.1144 155.803 43.1291C155.976 43.3886 156.086 43.7657 156.792 43.6302C157.011 43.7461 157.844 44.3142 158.293 44.2293C160.309 43.8506 161.717 42.2443 162.447 41.655C162.884 41.304 163.729 40.8094 164.722 40.274C164.098 39.4088 163.252 38.6938 162.163 38.2482Z" fill="#FABAAC"/>
<path d="M155.939 25.9368C154.189 28.0817 152.033 31.2485 150.281 34.7092C149.863 35.5368 148.659 37.9543 148.811 39.1378C148.965 40.3196 149.677 41.1995 150.308 41.4966C150.938 41.7937 151.126 41.2436 151.126 41.2436C151.126 41.2436 151.832 41.5374 152.199 41.5847C152.564 41.6321 152.768 41.2436 152.768 41.2436C152.768 41.2436 151.771 39.8773 152.199 39.4137C152.627 38.9501 153.074 38.7787 153.074 38.7787L154.424 39.399C154.424 39.399 153.449 38.0768 153.226 37.6801C153.002 37.2851 152.948 37.2541 152.908 36.9357C152.815 36.2126 157.032 31.2306 157.506 30.7376C158.974 29.2097 159.886 27.5186 159.886 27.5186C159.886 27.5186 159.167 27.0566 158.381 26.6877C157.475 26.2616 156.46 25.9254 155.939 25.9368Z" fill="#FABAAC"/>
<path d="M134.795 100.237L134.789 81.903L151.861 73.4337V91.7457L134.795 100.237Z" fill="#D9A14E"/>
<path d="M134.795 100.237L134.789 81.903L117.719 73.4337V91.7457L134.795 100.237Z" fill="#E6AF64"/>
<path d="M119.935 90.5265V76.4492L119.433 76.2004V90.8383L133.083 97.6243V97.0644L119.935 90.5265Z" fill="#CA8436"/>
<path d="M133.082 97.0645L133.077 82.9705L119.935 76.4493V90.5266L133.082 97.0645Z" fill="#D9A14E"/>
<path d="M128.111 93.5088L131.775 95.3304L131.773 90.5947L128.111 88.7781V93.5088Z" fill="white"/>
<path d="M149.651 90.5265V76.4492L150.149 76.2004V90.8383L136.501 97.6243V97.0644L149.651 90.5265Z" fill="#BD742F"/>
<path d="M136.501 97.0645L136.507 82.9705L149.651 76.4493V90.5266L136.501 97.0645Z" fill="#CA8436"/>
<path d="M117.719 73.434L134.789 81.9032L151.861 73.434L134.795 64.9674L117.719 73.434Z" fill="#FDDDB6"/>
<path d="M148.319 73.6052L148.882 73.3246L134.8 66.3379L120.709 73.3246L121.274 73.6052L134.8 66.8998L148.319 73.6052Z" fill="#D9A14E"/>
<path d="M148.32 73.6055L134.801 66.9L121.274 73.6055L134.795 80.3148L148.32 73.6055Z" fill="#E6AF64"/>
<path d="M146.096 79.6797V84.4115L148.913 83.0113V78.2808L146.096 79.6797Z" fill="#464648"/>
<path d="M141.916 81.7118V86.4436L144.733 85.0434V80.3148L141.916 81.7118Z" fill="#464648"/>
<path d="M134.795 80.9624L134.789 62.6297L151.861 54.1592V72.4741L134.795 80.9624Z" fill="#D9A14E"/>
<path d="M134.795 80.9624L134.789 62.6297L117.719 54.1592V72.4741L134.795 80.9624Z" fill="#E6AF64"/>
<path d="M119.935 71.253V57.1757L119.433 56.9269V71.5647L133.083 78.3488V77.7908L119.935 71.253Z" fill="#CA8436"/>
<path d="M133.082 77.791L133.077 63.6971L119.935 57.1759V71.2532L133.082 77.791Z" fill="#D9A14E"/>
<path d="M128.111 74.2341L131.775 76.0559L131.773 71.322L128.111 69.5033V74.2341Z" fill="white"/>
<path d="M149.651 71.253V57.1757L150.149 56.9269V71.5647L136.501 78.3488V77.7908L149.651 71.253Z" fill="#BD742F"/>
<path d="M136.501 77.791L136.507 63.6971L149.651 57.1759V71.2532L136.501 77.791Z" fill="#CA8436"/>
<path d="M117.719 54.1593L134.789 62.6299L151.861 54.1593L134.795 45.694L117.719 54.1593Z" fill="#FDDDB6"/>
<path d="M148.319 54.3319L148.882 54.0513L134.8 47.0627L120.709 54.0513L121.274 54.3319L134.8 47.6246L148.319 54.3319Z" fill="#D9A14E"/>
<path d="M148.32 54.332L134.801 47.6245L121.274 54.332L134.795 61.0394L148.32 54.332Z" fill="#E6AF64"/>
<path d="M146.096 60.4042V65.1381L148.913 63.7359V59.0071L146.096 60.4042Z" fill="#464648"/>
<path d="M141.916 62.4364V67.1703L144.733 65.7681V61.0394L141.916 62.4364Z" fill="#464648"/>
<path d="M134.795 61.5813L134.789 43.2465L151.861 34.7777V53.091L134.795 61.5813Z" fill="#D9A14E"/>
<path d="M134.795 61.5813L134.789 43.2465L117.719 34.7777V53.091L134.795 61.5813Z" fill="#E6AF64"/>
<path d="M119.935 51.8719V37.7944L119.433 37.5447V52.1825L133.083 58.9663V58.4077L119.935 51.8719Z" fill="#CA8436"/>
<path d="M133.082 58.4077L133.077 44.314L119.935 37.7943V51.8718L133.082 58.4077Z" fill="#D9A14E"/>
<path d="M128.111 54.853L131.775 56.673L131.773 51.939L128.111 50.1204V54.853Z" fill="white"/>
<path d="M149.651 51.8719V37.7944L150.149 37.5447V52.1825L136.501 58.9663V58.4077L149.651 51.8719Z" fill="#BD742F"/>
<path d="M136.501 58.4077L136.507 44.314L149.651 37.7943V51.8718L136.501 58.4077Z" fill="#CA8436"/>
<path d="M117.719 34.7777L134.789 43.2465L151.861 34.7777L134.795 26.3105L117.719 34.7777Z" fill="#FDDDB6"/>
<path d="M148.319 34.9491L148.882 34.6683L134.8 27.6802L120.709 34.6683L121.274 34.9491L134.8 28.2417L148.319 34.9491Z" fill="#D9A14E"/>
<path d="M148.32 34.9493L134.801 28.2418L121.274 34.9493L134.795 41.6584L148.32 34.9493Z" fill="#E6AF64"/>
<path d="M146.096 41.0216V45.7556L148.913 44.3549V39.626L146.096 41.0216Z" fill="#464648"/>
<path d="M141.916 43.054V47.7878L144.733 46.3876V41.6583L141.916 43.054Z" fill="#464648"/>
<defs>
<filter id="filter0_f" x="107.127" y="65.7183" width="95.3501" height="54.1319" filterUnits="userSpaceOnUse" color-interpolation-filters="sRGB">
<feFlood flood-opacity="0" result="BackgroundImageFix"/>
<feBlend mode="normal" in="SourceGraphic" in2="BackgroundImageFix" result="shape"/>
<feGaussianBlur stdDeviation="5" result="effect1_foregroundBlur"/>
</filter>
<filter id="filter1_f" x="5.33008" y="76.973" width="95.3501" height="54.1319" filterUnits="userSpaceOnUse" color-interpolation-filters="sRGB">
<feFlood flood-opacity="0" result="BackgroundImageFix"/>
<feBlend mode="normal" in="SourceGraphic" in2="BackgroundImageFix" result="shape"/>
<feGaussianBlur stdDeviation="5" result="effect1_foregroundBlur"/>
</filter>
<radialGradient id="paint0_radial" cx="0" cy="0" r="1" gradientUnits="userSpaceOnUse" gradientTransform="translate(40.7344 7.1413) rotate(90) scale(7.1413 40.7344)">
<stop stop-color="#141414"/>
<stop offset="1" stop-color="#121212" stop-opacity="0"/>
</radialGradient>
<radialGradient id="paint1_radial" cx="0" cy="0" r="1" gradientUnits="userSpaceOnUse" gradientTransform="translate(40.7344 7.1413) rotate(90) scale(7.1413 40.7344)">
<stop stop-color="#141414"/>
<stop offset="1" stop-color="#121212" stop-opacity="0"/>
</radialGradient>
</defs>
</svg>
